<svg width="14" height="14" viewBox="0 0 14 14" fill="none" xmlns="http://www.w3.org/2000/svg">
<path d="M6.96243 0.322632C8.42029 0.322652 9.602 1.50444 9.60208 2.96228V4.26013H7.40384C6.02676 4.26013 4.89357 5.30669 4.75735 6.64783L4.74368 6.92029L4.75735 7.19177C4.89376 8.53271 6.0269 9.57947 7.40384 9.57947H9.60208V10.8763C9.60208 12.3343 8.42034 13.516 6.96243 13.516H3.00638C1.54853 13.5159 0.36673 12.3342 0.36673 10.8763V2.96228C0.366813 1.50448 1.54858 0.322717 3.00638 0.322632H6.96243ZM9.60208 6.26013V7.57947H7.40384L7.27005 7.5658C6.96993 7.50419 6.74411 7.23853 6.74368 6.92029C6.74368 6.60164 6.96965 6.33547 7.27005 6.2738L7.40384 6.26013H9.60208Z" fill="#FFFE45"/>
<path d="M10.8949 4.47398C11.1525 4.21636 11.5701 4.21636 11.8278 4.47398L13.8068 6.45301C14.0644 6.71063 14.0644 7.12821 13.8068 7.38583L11.8278 9.36486C11.5701 9.62248 11.1525 9.62248 10.8949 9.36486C10.6373 9.10724 10.6373 8.68965 10.8949 8.43203L11.7479 7.57909H7.40328C7.03895 7.57909 6.74361 7.28375 6.74361 6.91942C6.74361 6.55509 7.03895 6.25974 7.40328 6.25974H11.7479L10.8949 5.4068C10.6373 5.14918 10.6373 4.7316 10.8949 4.47398Z" fill="#FFFE45"/>
</svg>
