<svg width="32" height="32" viewBox="0 0 32 32" fill="none" xmlns="http://www.w3.org/2000/svg">
<g clip-path="url(#clip0_81_508)">
<path d="M14.0849 0.915055L0.885618 14.1144C-0.151472 15.1515 -0.151472 16.8485 0.885618 17.8856L14.0849 31.0849C15.122 32.122 16.8191 32.122 17.8562 31.0849L31.0555 17.8856C32.0926 16.8485 32.0926 15.1515 31.0555 14.1144L17.8562 0.915056C16.8191 -0.122034 15.122 -0.122035 14.0849 0.915055ZM17.3848 25.8995C16.6022 26.682 15.3389 26.682 14.5563 25.8995C13.7738 25.117 13.7738 23.8536 14.5563 23.0711C15.3389 22.2885 16.6022 22.2885 17.3848 23.0711C18.1673 23.8536 18.1673 25.117 17.3848 25.8995ZM8.89949 17.4142C8.11696 18.1967 6.8536 18.1967 6.07107 17.4142C5.28854 16.6317 5.28854 15.3683 6.07107 14.5858C6.8536 13.8033 8.11696 13.8033 8.89949 14.5858C9.68203 15.3683 9.68203 16.6317 8.89949 17.4142ZM17.3848 17.4142C16.6022 18.1967 15.3389 18.1967 14.5563 17.4142C13.7738 16.6317 13.7738 15.3683 14.5563 14.5858C15.3389 13.8033 16.6022 13.8033 17.3848 14.5858C18.1673 15.3683 18.1673 16.6317 17.3848 17.4142ZM25.8701 17.4142C25.0875 18.1967 23.8242 18.1967 23.0416 17.4142C22.2591 16.6317 22.2591 15.3683 23.0416 14.5858C23.8242 13.8033 25.0875 13.8033 25.8701 14.5858C26.6526 15.3683 26.6526 16.6317 25.8701 17.4142ZM17.3848 8.92893C16.6022 9.71146 15.3389 9.71146 14.5563 8.92893C13.7738 8.1464 13.7738 6.88304 14.5563 6.10051C15.3389 5.31797 16.6022 5.31797 17.3848 6.10051C18.1673 6.88304 18.1673 8.1464 17.3848 8.92893Z" fill="white"/>
</g>
<defs>
<clipPath id="clip0_81_508">
<rect width="32" height="32" rx="7.71788" fill="white"/>
</clipPath>
</defs>
</svg>
