<svg width="32" height="33" viewBox="0 0 32 33" fill="none" xmlns="http://www.w3.org/2000/svg">
<path d="M27.9942 10.624V10.7169C27.9942 11.8114 27.9942 12.3599 27.7307 12.8079C27.4673 13.2558 26.9875 13.5218 26.0305 14.0551L25.0213 14.615C25.7161 12.2632 25.949 9.7357 26.0343 7.57476L26.047 7.2935L26.0496 7.22733C26.8781 7.51494 27.3438 7.73002 27.634 8.13217C27.9942 8.63232 27.9942 9.29664 27.9942 10.624ZM2.54132 10.624V10.7169C2.54132 11.8114 2.54132 12.3599 2.80476 12.8079C3.06819 13.2558 3.54798 13.5218 4.50501 14.0551L5.51549 14.615C4.81935 12.2632 4.58646 9.7357 4.50119 7.57476L4.48846 7.2935L4.48719 7.22733C3.65743 7.51494 3.19164 7.73002 2.90148 8.13217C2.54132 8.63232 2.54132 9.29791 2.54132 10.624Z" fill="white"/>
<path fill-rule="evenodd" clip-rule="evenodd" d="M20.845 3.22342C19.0037 2.9218 17.1405 2.77409 15.2746 2.78181C13.0055 2.78181 11.1347 2.98162 9.70427 3.22342C8.25473 3.46777 7.5306 3.58994 6.92482 4.33571C6.32032 5.08148 6.35213 5.88706 6.41576 7.49822C6.63593 13.0317 7.82967 19.9447 14.3201 20.5555V25.053H12.5003C12.2062 25.0532 11.9212 25.1553 11.6938 25.3418C11.4665 25.5283 11.3107 25.7879 11.2531 26.0763L11.0113 27.2802H7.63877C7.38563 27.2802 7.14285 27.3807 6.96385 27.5597C6.78485 27.7387 6.68429 27.9815 6.68429 28.2347C6.68429 28.4878 6.78485 28.7306 6.96385 28.9096C7.14285 29.0886 7.38563 29.1891 7.63877 29.1891H22.9105C23.1636 29.1891 23.4064 29.0886 23.5854 28.9096C23.7644 28.7306 23.865 28.4878 23.865 28.2347C23.865 27.9815 23.7644 27.7387 23.5854 27.5597C23.4064 27.3807 23.1636 27.2802 22.9105 27.2802H19.538L19.2962 26.0763C19.2385 25.7879 19.0828 25.5283 18.8554 25.3418C18.628 25.1553 18.3431 25.0532 18.049 25.053H16.2291V20.5555C22.7196 19.9447 23.9146 13.0329 24.1335 7.49822C24.1971 5.88706 24.2302 5.0802 23.6244 4.33571C23.0187 3.58994 22.2945 3.46777 20.845 3.22342ZM16.2762 7.62676C16.4506 7.69901 16.5997 7.82136 16.7046 7.97835C16.8095 8.13534 16.8654 8.3199 16.8654 8.5087V13.5993C16.8654 13.8524 16.7649 14.0952 16.5859 14.2742C16.4069 14.4532 16.1641 14.5538 15.9109 14.5538C15.6578 14.5538 15.415 14.4532 15.236 14.2742C15.057 14.0952 14.9565 13.8524 14.9565 13.5993V10.8122L14.6765 11.0922C14.5891 11.1859 14.4837 11.2612 14.3666 11.3133C14.2496 11.3655 14.1232 11.3935 13.995 11.3958C13.8669 11.3981 13.7396 11.3745 13.6207 11.3265C13.5019 11.2785 13.3939 11.207 13.3033 11.1164C13.2126 11.0258 13.1412 10.9178 13.0932 10.7989C13.0452 10.6801 13.0216 10.5528 13.0238 10.4246C13.0261 10.2965 13.0542 10.1701 13.1063 10.053C13.1585 9.93592 13.2337 9.83055 13.3275 9.74316L15.2364 7.8342C15.3698 7.70071 15.5398 7.60976 15.7249 7.57284C15.9099 7.53591 16.1018 7.55468 16.2762 7.62676Z" fill="white"/>
</svg>
