<svg width="122" height="19" viewBox="0 0 122 19" fill="none" xmlns="http://www.w3.org/2000/svg">
<path d="M19.4635 18.4521H13.6635C13.0005 18.4521 12.3891 18.3922 11.8333 18.2645C11.2736 18.1408 10.8091 17.9212 10.4399 17.6139C10.0707 17.3026 9.80869 16.8955 9.64989 16.3886C9.4911 15.8858 9.47919 15.2552 9.6102 14.5048L9.88412 12.9363C9.99528 12.3017 10.162 11.7669 10.3923 11.3359C10.6186 10.9088 10.8925 10.5576 11.2061 10.2862C11.5237 10.0108 11.8849 9.80727 12.2938 9.66359C12.6988 9.51991 13.1355 9.41614 13.6039 9.34829C13.1791 9.28444 12.8099 9.16071 12.5003 8.98111C12.1867 8.80151 11.9405 8.57002 11.7619 8.29064C11.5832 8.01127 11.4641 7.68798 11.4086 7.32479C11.349 6.9616 11.3609 6.55849 11.4443 6.11548L11.7579 4.33543C11.8572 3.75672 12.0398 3.23388 12.3058 2.76692C12.5717 2.29996 12.9211 1.90084 13.3538 1.56958C13.7865 1.23832 14.2986 0.986876 14.8862 0.811266C15.4777 0.635656 16.1447 0.547852 16.8831 0.547852H23.2587C22.4092 0.903062 21.4762 1.96071 21.4762 1.96071C21.242 2.20417 21.0395 2.47158 20.8688 2.76692C20.6029 3.23388 20.4202 3.75672 20.321 4.33543L20.3051 4.43521H17.9549C17.7564 4.43521 17.5738 4.45916 17.415 4.51104C17.2523 4.55894 17.1093 4.63078 16.9902 4.72257C16.8672 4.81437 16.7679 4.93011 16.6846 5.06182C16.6012 5.19752 16.5456 5.34519 16.5218 5.51282L16.359 6.47867C16.3273 6.63832 16.3273 6.77801 16.359 6.89774C16.3908 7.02147 16.4543 7.12524 16.5416 7.21703C16.629 7.30883 16.7401 7.38067 16.8831 7.43255C17.026 7.48045 17.1848 7.50838 17.3714 7.50838L19.7692 7.48843C19.7692 7.48843 19.3365 8.94519 20.0312 9.73543C20.0312 9.73543 19.1578 10.2543 18.5425 11.3359L16.3074 11.3439C16.1248 11.3439 15.9581 11.3718 15.8032 11.4237C15.6484 11.4796 15.5134 11.5514 15.3943 11.6392C15.2713 11.727 15.176 11.8348 15.1006 11.9665C15.0251 12.0942 14.9735 12.2379 14.9497 12.3975L14.7631 13.4392C14.7314 13.6068 14.7314 13.7585 14.7671 13.9022C14.8068 14.0459 14.8743 14.1616 14.9696 14.2574C15.0648 14.3572 15.1839 14.433 15.3229 14.4929C15.4658 14.5487 15.6365 14.5767 15.835 14.5767H18.1653C18.1653 14.5767 17.6651 17.9372 19.4635 18.4521Z" fill="#E20000"/>
<path d="M19.4635 18.4521H13.6635C13.0005 18.4521 12.3891 18.3922 11.8333 18.2645C11.2736 18.1408 10.8091 17.9212 10.4399 17.6139C10.0707 17.3026 9.80869 16.8955 9.64989 16.3886C9.4911 15.8858 9.47919 15.2552 9.6102 14.5048L9.88412 12.9363C9.99528 12.3017 10.162 11.7669 10.3923 11.3359C10.6186 10.9088 10.8925 10.5576 11.2061 10.2862C11.5237 10.0108 11.8849 9.80727 12.2938 9.66359C12.6988 9.51991 13.1355 9.41614 13.6039 9.34829C13.1791 9.28444 12.8099 9.16071 12.5003 8.98111C12.1867 8.80151 11.9405 8.57002 11.7619 8.29064C11.5832 8.01127 11.4641 7.68798 11.4086 7.32479C11.349 6.9616 11.3609 6.55849 11.4443 6.11548L11.7579 4.33543C11.8572 3.75672 12.0398 3.23388 12.3058 2.76692C12.5717 2.29996 12.9211 1.90084 13.3538 1.56958C13.7865 1.23832 14.2986 0.986876 14.8862 0.811266C15.4777 0.635656 16.1447 0.547852 16.8831 0.547852H23.2587C22.4092 0.903062 21.4762 1.96071 21.4762 1.96071C21.242 2.20417 21.0395 2.47158 20.8688 2.76692C20.6029 3.23388 20.4202 3.75672 20.321 4.33543L20.3051 4.43521H17.9549C17.7564 4.43521 17.5738 4.45916 17.415 4.51104C17.2523 4.55894 17.1093 4.63078 16.9902 4.72257C16.8672 4.81437 16.7679 4.93011 16.6846 5.06182C16.6012 5.19752 16.5456 5.34519 16.5218 5.51282L16.359 6.47867C16.3273 6.63832 16.3273 6.77801 16.359 6.89774C16.3908 7.02147 16.4543 7.12524 16.5416 7.21703C16.629 7.30883 16.7401 7.38067 16.8831 7.43255C17.026 7.48045 17.1848 7.50838 17.3714 7.50838L19.7692 7.48843C19.7692 7.48843 19.3365 8.94519 20.0312 9.73543C20.0312 9.73543 19.1578 10.2543 18.5425 11.3359L16.3074 11.3439C16.1248 11.3439 15.9581 11.3718 15.8032 11.4237C15.6484 11.4796 15.5134 11.5514 15.3943 11.6392C15.2713 11.727 15.176 11.8348 15.1006 11.9665C15.0251 12.0942 14.9735 12.2379 14.9497 12.3975L14.7631 13.4392C14.7314 13.6068 14.7314 13.7585 14.7671 13.9022C14.8068 14.0459 14.8743 14.1616 14.9696 14.2574C15.0648 14.3572 15.1839 14.433 15.3229 14.4929C15.4658 14.5487 15.6365 14.5767 15.835 14.5767H18.1653C18.1653 14.5767 17.6651 17.9372 19.4635 18.4521Z" fill="#E20000"/>
<path d="M9.94298 18.4521H4.14296C3.47998 18.4521 2.86862 18.3922 2.31283 18.2645C1.75308 18.1408 1.2886 17.9212 0.919398 17.6139C0.550197 17.3026 0.288182 16.8955 0.129385 16.3886C-0.0294106 15.8858 -0.0413167 15.2552 0.0896901 14.5048L0.363614 12.9363C0.474771 12.3017 0.641507 11.7669 0.871761 11.3359C1.09805 10.9088 1.37197 10.5576 1.68559 10.2862C2.00318 10.0108 2.36444 9.80727 2.77334 9.66359C3.17827 9.51991 3.61496 9.41614 4.08341 9.34829C3.65863 9.28444 3.28943 9.16071 2.97978 8.98111C2.66616 8.80151 2.42002 8.57002 2.24138 8.29064C2.06273 8.01127 1.94363 7.68798 1.88805 7.32479C1.82851 6.9616 1.84041 6.55849 1.92378 6.11548L2.23741 4.33543C2.33666 3.75672 2.51927 3.23388 2.78525 2.76692C3.05123 2.29996 3.40058 1.90084 3.8333 1.56958C4.26602 1.23832 4.77814 0.986876 5.36569 0.811266C5.9572 0.635656 6.62414 0.547852 7.36255 0.547852H13.7382C12.8886 0.903062 11.9557 1.96071 11.9557 1.96071C11.7215 2.20417 11.519 2.47158 11.3483 2.76692C11.0823 3.23388 10.8997 3.75672 10.8005 4.33543L10.7846 4.43521H8.43442C8.23593 4.43521 8.05331 4.45916 7.89452 4.51104C7.73175 4.55894 7.58883 4.63078 7.46974 4.72257C7.34667 4.81437 7.24742 4.93011 7.16405 5.06182C7.08068 5.19752 7.02511 5.34519 7.00129 5.51282L6.83852 6.47867C6.80676 6.63832 6.80676 6.77801 6.83852 6.89774C6.87028 7.02147 6.9338 7.12524 7.02113 7.21703C7.10847 7.30883 7.21963 7.38067 7.36255 7.43255C7.50546 7.48045 7.66426 7.50838 7.85085 7.50838L10.2487 7.48843C10.2487 7.48843 9.81595 8.94519 10.5107 9.73543C10.5107 9.73543 9.6373 10.2543 9.02197 11.3359L6.78691 11.3439C6.6043 11.3439 6.43756 11.3718 6.28273 11.4237C6.12791 11.4796 5.99293 11.5514 5.87383 11.6392C5.75077 11.727 5.65549 11.8348 5.58006 11.9665C5.50464 12.0942 5.45303 12.2379 5.42921 12.3975L5.24262 13.4392C5.21086 13.6068 5.21086 13.7585 5.24659 13.9022C5.28629 14.0459 5.35378 14.1616 5.44906 14.2574C5.54433 14.3572 5.66343 14.433 5.80238 14.4929C5.94529 14.5487 6.116 14.5767 6.31449 14.5767H8.64483C8.64483 14.5767 8.14462 17.9372 9.94298 18.4521Z" fill="#E20000"/>
<path d="M38.638 1.82905C39.3962 2.81086 39.0469 4.36341 39.0469 4.36341L38.8801 5.30133L33.7868 5.91996L33.8026 5.83614C33.9376 5.05388 33.4017 4.41929 32.6077 4.43525L27.0776 4.52306C26.5536 4.53104 26.109 4.9102 26.0177 5.42905L25.8747 6.23525C25.7636 6.86585 26.2439 7.44058 26.8831 7.44058H34.1242C34.8269 7.44058 35.4581 7.48847 36.0178 7.58426C36.5776 7.68004 37.0421 7.86763 37.4073 8.13902C37.7765 8.41042 38.0306 8.79756 38.1735 9.29246C38.3164 9.78736 38.3204 10.4299 38.1854 11.2202L37.6098 14.5448C37.4669 15.359 37.2445 16.0255 36.9389 16.5404C36.6332 17.0552 36.2521 17.4583 35.7916 17.7497C35.331 18.041 34.8031 18.2366 34.1996 18.3404C33.5962 18.4441 32.9332 18.5 32.2067 18.5H23.1315C22.405 18.5 21.758 18.4481 21.1942 18.3404C20.6305 18.2366 20.17 18.037 19.8167 17.7497C19.4634 17.4623 19.2212 17.0592 19.0942 16.5483C18.9671 16.0375 18.9314 15.343 19.0743 14.5288L19.2609 13.4592L24.3622 12.8047L24.3424 12.9084C24.1955 13.7745 24.8584 14.5687 25.7318 14.5687H31.4922C32.1789 14.5687 32.7665 14.0738 32.8816 13.3914L32.9412 13.0401C33.092 12.1741 32.4251 11.3758 31.5517 11.3758H24.7314C24.0049 11.3758 23.3578 11.32 22.7941 11.2122C22.2304 11.1044 21.7738 10.9049 21.4205 10.6135C21.0712 10.3222 20.833 9.91907 20.7059 9.39623C20.5789 8.87738 20.5908 8.21087 20.7297 7.40466L21.2697 4.30355C21.4046 3.5133 21.6309 2.87073 21.9525 2.37583C22.274 1.88093 22.6671 1.49379 23.1315 1.21042C23.596 0.927051 24.124 0.739468 24.7235 0.643681C25.319 0.547894 25.966 0.5 26.6608 0.5H35.0849C36.8078 0.559867 37.8718 0.831264 38.63 1.81308L38.638 1.82905Z" fill="white"/>
<path d="M45.4121 18.3322L47.6789 5.22932H41.1881L41.9781 0.691406H60.1285L59.3385 5.22932H52.8477L50.5809 18.3322H45.4161H45.4121Z" fill="white"/>
<path d="M55.964 18.3322L68.0722 0.691406H72.7487L78.8028 18.3322H73.0266L71.9984 15.1313H63.7013L61.5576 18.3322H55.968H55.964ZM66.0912 11.5393H70.8789L69.3267 6.73797L66.0912 11.5393Z" fill="white"/>
<path d="M81.1914 18.3322L84.2522 0.691406H97.1981C97.9087 0.691406 98.5438 0.743291 99.1076 0.84706C99.6713 0.95083 100.136 1.1464 100.497 1.42577C100.862 1.70914 101.116 2.09628 101.263 2.59118C101.41 3.08608 101.414 3.72467 101.283 4.50693L100.604 8.32644C100.505 8.92511 100.334 9.43997 100.092 9.88298C99.8499 10.326 99.5443 10.6932 99.1711 10.9925C98.7979 11.2919 98.3612 11.5193 97.861 11.679C97.3608 11.8386 96.8011 11.9384 96.1818 11.9823H95.5307L100.358 18.3322H94.0301L89.6076 12.3455H87.4122L86.3721 18.3322H81.1954H81.1914ZM88.1229 8.20271H94.4152C94.5978 8.20271 94.7605 8.18276 94.9034 8.14684C95.0464 8.11092 95.1694 8.05105 95.2806 7.97123C95.3878 7.89141 95.4751 7.78764 95.5426 7.65593C95.6101 7.52422 95.6617 7.36857 95.7054 7.18498L95.9078 5.97566C95.9396 5.80804 95.9436 5.66036 95.9197 5.53265C95.8959 5.40493 95.8443 5.30116 95.7689 5.21735C95.6935 5.13354 95.5902 5.06968 95.4632 5.02178C95.3322 4.97389 95.1774 4.95393 94.9948 4.95393H88.7025L88.1268 8.20671L88.1229 8.20271Z" fill="white"/>
<path d="M101.785 18.333L102.099 16.4931L113.377 4.96273L113.413 5.07448H105.192L105.958 0.688232H122L121.686 2.52814L110.404 14.0585L110.352 13.9468H119.777L119.027 18.333H101.781H101.785Z" fill="white"/>
</svg>
