<svg width="24" height="23" viewBox="0 0 24 23" fill="none" xmlns="http://www.w3.org/2000/svg">
<path fill-rule="evenodd" clip-rule="evenodd" d="M20.0577 9.44865C20.0018 9.44607 19.9459 9.44511 19.89 9.44578H17.5564C15.6474 9.44578 14.0125 10.9609 14.0125 12.937C14.0125 14.9131 15.6474 16.4282 17.5574 16.4282H19.889C19.9478 16.4288 20.0037 16.4276 20.0567 16.4244C20.4506 16.3988 20.8218 16.2311 21.1014 15.9524C21.381 15.6738 21.5498 15.3031 21.5766 14.9092C21.5805 14.8527 21.5805 14.7923 21.5805 14.7367V11.1372C21.5805 11.0817 21.5805 11.0213 21.5766 10.9647C21.5499 10.5711 21.3811 10.2005 21.1018 9.92185C20.8224 9.64319 20.4514 9.4754 20.0577 9.44961M17.3523 13.8685C17.8439 13.8685 18.2436 13.4526 18.2436 12.9379C18.2436 12.4233 17.8439 12.0074 17.3523 12.0074C16.8607 12.0074 16.462 12.4233 16.462 12.9379C16.462 13.4526 16.8597 13.8685 17.3523 13.8685Z" fill="#FFFE45"/>
<path fill-rule="evenodd" clip-rule="evenodd" d="M19.8909 17.825C19.923 17.8239 19.955 17.8303 19.9841 17.8438C20.0133 17.8573 20.0389 17.8774 20.0588 17.9026C20.0788 17.9278 20.0926 17.9573 20.099 17.9887C20.1055 18.0202 20.1044 18.0528 20.096 18.0838C19.9101 18.7469 19.6159 19.3123 19.1434 19.7877C18.4525 20.4844 17.5756 20.7939 16.4927 20.9405C15.4404 21.0833 14.0969 21.0833 12.3987 21.0833H10.4466C8.74935 21.0833 7.40481 21.0833 6.35256 20.9405C5.26965 20.7939 4.39277 20.4844 3.70181 19.7877C3.01085 19.0929 2.70419 18.2083 2.55852 17.1178C2.41669 16.0559 2.41669 14.7008 2.41669 12.9902V12.8848C2.41669 11.1742 2.41669 9.81813 2.55852 8.75821C2.70419 7.66667 3.01085 6.785 3.70085 6.08638C4.39181 5.39063 5.26869 5.08013 6.3516 4.93446C7.40481 4.79167 8.74935 4.79167 10.4466 4.79167H12.3987C14.0959 4.79167 15.4404 4.79167 16.4927 4.93446C17.5756 5.08109 18.4525 5.39063 19.1434 6.08638C19.6159 6.56267 19.9101 7.12809 20.096 7.79221C20.1043 7.82315 20.1052 7.85559 20.0986 7.88694C20.0921 7.91828 20.0783 7.94766 20.0583 7.97272C20.0384 7.99777 20.0129 8.01782 19.9838 8.03124C19.9548 8.04466 19.9229 8.05108 19.8909 8.05H17.5593C14.9392 8.05 12.6306 10.1363 12.6306 12.9375C12.6306 15.7387 14.9402 17.825 17.5603 17.825H19.8909ZM5.8801 8.51575C5.78886 8.51613 5.69859 8.53448 5.61444 8.56974C5.53028 8.60501 5.4539 8.6565 5.38965 8.72129C5.3254 8.78607 5.27454 8.86288 5.23997 8.94732C5.20541 9.03176 5.18781 9.12218 5.18819 9.21342C5.18819 9.59963 5.49773 9.91205 5.8801 9.91205H9.57544C9.95877 9.91205 10.2683 9.59963 10.2683 9.21342C10.2688 9.02906 10.1961 8.85204 10.0662 8.72123C9.93631 8.59042 9.7598 8.51652 9.57544 8.51575H5.8801Z" fill="#FFFE45"/>
</svg>
