<svg width="375" height="621" viewBox="0 0 375 621" fill="none" xmlns="http://www.w3.org/2000/svg">
<g style="mix-blend-mode:overlay">
<g clip-path="url(#paint0_diamond_81_217_clip_path)" data-figma-skip-parse="true"><g transform="matrix(0.181245 0.313925 0.313919 -0.181241 276.098 125.419)"><rect x="0" y="0" width="1002.76" height="1002.76" fill="url(#paint0_diamond_81_217)" opacity="1" shape-rendering="crispEdges"/><rect x="0" y="0" width="1002.76" height="1002.76" transform="scale(1 -1)" fill="url(#paint0_diamond_81_217)" opacity="1" shape-rendering="crispEdges"/><rect x="0" y="0" width="1002.76" height="1002.76" transform="scale(-1 1)" fill="url(#paint0_diamond_81_217)" opacity="1" shape-rendering="crispEdges"/><rect x="0" y="0" width="1002.76" height="1002.76" transform="scale(-1)" fill="url(#paint0_diamond_81_217)" opacity="1" shape-rendering="crispEdges"/></g></g><path d="M498.992 -125.812L499.121 -126.295L499.321 -126.242L499.425 -126.062L498.992 -125.812ZM208.672 -203.603L208.801 -204.086L208.801 -204.086L208.672 -203.603ZM24.6158 -97.3387L24.1321 -97.4651L24.1328 -97.4681L24.6158 -97.3387ZM24.6145 -97.3339L25.0983 -97.2074L25.0975 -97.2045L24.6145 -97.3339ZM343.524 454.439L343.654 453.957L343.654 453.957L343.524 454.439ZM527.582 348.178L528.065 348.307L528.065 348.307L527.582 348.178ZM498.994 -125.809L498.864 -125.326L498.664 -125.38L498.561 -125.559L498.994 -125.809ZM498.992 -125.812L498.863 -125.329C482.848 -129.62 468.928 -140.301 460.638 -154.66L461.071 -154.91L461.504 -155.16C469.661 -141.031 483.363 -130.517 499.121 -126.295L498.992 -125.812ZM461.071 -154.91L460.638 -154.66C419.446 -226.005 327.376 -250.675 256.031 -209.484L255.781 -209.917L255.531 -210.35C327.354 -251.818 420.036 -226.984 461.504 -155.16L461.071 -154.91ZM255.781 -209.917L256.031 -209.484L256.024 -209.481L255.774 -209.914L255.524 -210.347L255.531 -210.35L255.781 -209.917ZM255.774 -209.914L256.024 -209.481C241.803 -201.27 224.41 -198.866 208.542 -203.12L208.672 -203.603L208.801 -204.086C224.408 -199.902 241.528 -202.266 255.524 -210.347L255.774 -209.914ZM208.672 -203.603L208.542 -203.12C128.972 -224.441 46.4176 -176.782 25.0988 -97.2093L24.6158 -97.3387L24.1328 -97.4681C45.5946 -177.574 128.698 -225.55 208.801 -204.086L208.672 -203.603ZM24.6158 -97.3387L25.0996 -97.2122L25.0983 -97.2074L24.6145 -97.3339L24.1308 -97.4603L24.1321 -97.4651L24.6158 -97.3387ZM24.6145 -97.3339L25.0975 -97.2045C20.8545 -81.3692 10.2942 -67.6081 -3.90515 -59.4101L-4.15515 -59.8431L-4.40515 -60.2761C9.56456 -68.3416 19.9572 -81.8843 24.1316 -97.4633L24.6145 -97.3339ZM-4.15515 -59.8431L-3.90515 -59.4101C-75.2477 -18.2205 -99.9209 73.8515 -58.7295 145.197L-59.1625 145.447L-59.5955 145.697C-101.063 73.8732 -76.2259 -18.8104 -4.40515 -60.2761L-4.15515 -59.8431ZM-59.1625 145.447L-58.7295 145.197C-50.5143 159.426 -48.3297 176.849 -52.5812 192.716L-53.0641 192.586L-53.5471 192.457C-49.3631 176.842 -51.5153 159.692 -59.5955 145.697L-59.1625 145.447ZM-53.0641 192.586L-52.5812 192.716C-73.9031 272.29 -26.2411 354.843 53.3286 376.164L53.1992 376.647L53.0698 377.13C-27.0333 355.666 -75.012 272.565 -53.5471 192.457L-53.0641 192.586ZM53.1992 376.647L53.3286 376.164C69.3428 380.455 83.2633 391.136 91.5534 405.495L91.1204 405.745L90.6874 405.995C82.5299 391.865 68.8277 381.352 53.0698 377.13L53.1992 376.647ZM91.1204 405.745L91.5534 405.495C132.745 476.84 224.821 501.507 296.161 460.319L296.411 460.752L296.661 461.185C224.843 502.649 132.155 477.818 90.6874 405.995L91.1204 405.745ZM296.411 460.752L296.161 460.319C310.385 452.106 327.784 449.707 343.654 453.957L343.524 454.439L343.395 454.922C327.786 450.743 310.66 453.102 296.661 461.185L296.411 460.752ZM343.524 454.439L343.654 453.957C423.225 475.28 505.775 427.62 527.099 348.048L527.582 348.178L528.065 348.307C506.598 428.412 423.5 476.389 343.395 454.922L343.524 454.439ZM527.582 348.178L527.099 348.049C531.341 332.205 541.897 318.443 556.099 310.243L556.349 310.676L556.599 311.109C542.627 319.176 532.239 332.72 528.065 348.307L527.582 348.178ZM556.349 310.676L556.099 310.243C627.442 269.054 652.115 176.982 610.925 105.639L611.358 105.389L611.791 105.139C653.257 176.96 628.42 269.643 556.599 311.109L556.349 310.676ZM611.358 105.389L610.925 105.639C602.71 91.4101 600.526 73.987 604.777 58.1203L605.26 58.2497L605.743 58.3791C601.559 73.9943 603.711 91.1439 611.791 105.139L611.358 105.389ZM605.26 58.2497L604.777 58.1203C626.098 -21.4494 578.439 -104.004 498.864 -125.326L498.994 -125.809L499.123 -126.292C579.231 -104.827 627.207 -21.724 605.743 58.3791L605.26 58.2497ZM498.994 -125.809L498.561 -125.559L498.559 -125.562L498.992 -125.812L499.425 -126.062L499.427 -126.059L498.994 -125.809Z" data-figma-gradient-fill="{&#34;type&#34;:&#34;GRADIENT_DIAMOND&#34;,&#34;stops&#34;:[{&#34;color&#34;:{&#34;r&#34;:1.0,&#34;g&#34;:1.0,&#34;b&#34;:1.0,&#34;a&#34;:1.0},&#34;position&#34;:0.0},{&#34;color&#34;:{&#34;r&#34;:1.0,&#34;g&#34;:1.0,&#34;b&#34;:1.0,&#34;a&#34;:1.0},&#34;position&#34;:1.0}],&#34;stopsVar&#34;:[{&#34;color&#34;:{&#34;r&#34;:1.0,&#34;g&#34;:1.0,&#34;b&#34;:1.0,&#34;a&#34;:1.0},&#34;position&#34;:0.0},{&#34;color&#34;:{&#34;r&#34;:1.0,&#34;g&#34;:1.0,&#34;b&#34;:1.0,&#34;a&#34;:1.0},&#34;position&#34;:1.0}],&#34;transform&#34;:{&#34;m00&#34;:362.48956298828125,&#34;m01&#34;:627.8378906250,&#34;m02&#34;:-219.06605529785156,&#34;m10&#34;:627.8503417968750,&#34;m11&#34;:-362.48239135742188,&#34;m12&#34;:-7.2646789550781250},&#34;opacity&#34;:1.0,&#34;blendMode&#34;:&#34;NORMAL&#34;,&#34;visible&#34;:true}"/>
</g>
<mask id="mask0_81_217" style="mask-type:alpha" maskUnits="userSpaceOnUse" x="-80" y="-232" width="713" height="713">
<path fill-rule="evenodd" clip-rule="evenodd" d="M499.383 -127.065C483.497 -131.322 469.685 -141.919 461.461 -156.163C420.132 -227.747 327.756 -252.499 256.171 -211.17L256.165 -211.166C242.056 -203.021 224.8 -200.637 209.062 -204.856C129.226 -226.248 46.3968 -178.431 25.0064 -98.5916L25.0052 -98.5868C20.7964 -82.8797 10.32 -69.2278 -3.76452 -61.0961C-75.3462 -19.7684 -100.101 72.6094 -58.7718 144.194C-50.6242 158.306 -48.4557 175.593 -52.6735 191.334C-74.0669 271.175 -26.2465 354.002 53.5898 375.394C69.4759 379.651 83.2872 390.248 91.511 404.492C132.84 476.076 225.223 500.825 296.801 459.499C310.913 451.351 328.176 448.972 343.915 453.187C423.753 474.582 506.577 426.763 527.973 346.925C532.181 331.21 542.652 317.557 556.74 309.423C628.322 268.096 653.077 175.718 611.749 104.136C603.601 90.0241 601.433 72.7378 605.651 56.9968C627.043 -22.8396 579.226 -105.669 499.384 -127.062L499.383 -127.065Z" fill="#D9D9D9"/>
<g clip-path="url(#paint1_diamond_81_217_clip_path)" data-figma-skip-parse="true"><g transform="matrix(0.181245 0.313925 0.313919 -0.181241 276.488 124.166)"><rect x="0" y="0" width="1002.76" height="1002.76" fill="url(#paint1_diamond_81_217)" opacity="1" shape-rendering="crispEdges"/><rect x="0" y="0" width="1002.76" height="1002.76" transform="scale(1 -1)" fill="url(#paint1_diamond_81_217)" opacity="1" shape-rendering="crispEdges"/><rect x="0" y="0" width="1002.76" height="1002.76" transform="scale(-1 1)" fill="url(#paint1_diamond_81_217)" opacity="1" shape-rendering="crispEdges"/><rect x="0" y="0" width="1002.76" height="1002.76" transform="scale(-1)" fill="url(#paint1_diamond_81_217)" opacity="1" shape-rendering="crispEdges"/></g></g><path d="M499.383 -127.065L499.512 -127.548L499.712 -127.494L499.816 -127.315L499.383 -127.065ZM209.062 -204.856L209.192 -205.339L209.192 -205.339L209.062 -204.856ZM25.0064 -98.5916L24.5229 -98.7189L24.5235 -98.721L25.0064 -98.5916ZM25.0052 -98.5868L25.4887 -98.4595L25.4881 -98.4574L25.0052 -98.5868ZM-52.6735 191.334L-53.1565 191.204L-52.6735 191.334ZM53.5898 375.394L53.7193 374.911L53.5898 375.394ZM343.915 453.187L344.044 452.704L344.044 452.704L343.915 453.187ZM527.973 346.925L528.456 347.054L528.456 347.054L527.973 346.925ZM605.651 56.9968L605.168 56.8674L605.651 56.9968ZM499.384 -127.062L499.255 -126.579L499.055 -126.633L498.951 -126.812L499.384 -127.062ZM499.383 -127.065L499.253 -126.582C483.239 -130.873 469.318 -141.554 461.028 -155.913L461.461 -156.163L461.894 -156.413C470.052 -142.284 483.754 -131.77 499.512 -127.548L499.383 -127.065ZM461.461 -156.163L461.028 -155.913C419.837 -227.258 327.767 -251.928 256.421 -210.737L256.171 -211.17L255.921 -211.603C327.745 -253.071 420.427 -228.237 461.894 -156.413L461.461 -156.163ZM256.171 -211.17L256.421 -210.737L256.415 -210.733L256.165 -211.166L255.915 -211.599L255.921 -211.603L256.171 -211.17ZM256.165 -211.166L256.415 -210.733C242.193 -202.523 224.801 -200.119 208.933 -204.373L209.062 -204.856L209.192 -205.339C224.799 -201.155 241.919 -203.519 255.915 -211.599L256.165 -211.166ZM209.062 -204.856L208.933 -204.373C129.363 -225.694 46.8083 -178.035 25.4894 -98.4622L25.0064 -98.5916L24.5235 -98.721C45.9853 -178.827 129.088 -226.803 209.192 -205.339L209.062 -204.856ZM25.0064 -98.5916L25.4899 -98.4643L25.4887 -98.4595L25.0052 -98.5868L24.5217 -98.7141L24.5229 -98.7189L25.0064 -98.5916ZM25.0052 -98.5868L25.4881 -98.4574C21.2451 -82.6221 10.6849 -68.8611 -3.51452 -60.663L-3.76452 -61.0961L-4.01452 -61.5291C9.95521 -69.5945 20.3478 -83.1372 24.5222 -98.7162L25.0052 -98.5868ZM-3.76452 -61.0961L-3.51452 -60.663C-74.857 -19.4734 -99.5302 72.5985 -58.3388 143.944L-58.7718 144.194L-59.2049 144.444C-100.672 72.6202 -75.8353 -20.0633 -4.01452 -61.5291L-3.76452 -61.0961ZM-58.7718 144.194L-58.3388 143.944C-50.1237 158.173 -47.9391 175.596 -52.1905 191.463L-52.6735 191.334L-53.1565 191.204C-48.9724 175.589 -51.1247 158.439 -59.2049 144.444L-58.7718 144.194ZM-52.6735 191.334L-52.1905 191.463C-73.5125 271.037 -25.8504 353.591 53.7193 374.911L53.5898 375.394L53.4604 375.877C-26.6427 354.413 -74.6213 271.312 -53.1565 191.204L-52.6735 191.334ZM53.5898 375.394L53.7193 374.911C69.7334 379.202 83.654 389.883 91.944 404.242L91.511 404.492L91.078 404.742C82.9206 390.613 69.2184 380.099 53.4604 375.877L53.5898 375.394ZM91.511 404.492L91.944 404.242C133.135 475.587 225.212 500.254 296.551 459.066L296.801 459.499L297.051 459.932C225.233 501.396 132.546 476.566 91.078 404.742L91.511 404.492ZM296.801 459.499L296.551 459.066C310.776 450.853 328.175 448.454 344.044 452.704L343.915 453.187L343.786 453.67C328.177 449.49 311.051 451.849 297.051 459.932L296.801 459.499ZM343.915 453.187L344.044 452.704C423.616 474.027 506.166 426.367 527.49 346.796L527.973 346.925L528.456 347.054C506.989 427.159 423.891 475.136 343.786 453.669L343.915 453.187ZM527.973 346.925L527.49 346.796C531.732 330.953 542.287 317.19 556.49 308.99L556.74 309.423L556.99 309.856C543.017 317.923 532.629 331.467 528.456 347.054L527.973 346.925ZM556.74 309.423L556.49 308.99C627.833 267.801 652.506 175.729 611.316 104.386L611.749 104.136L612.182 103.886C653.648 175.707 628.811 268.391 556.99 309.856L556.74 309.423ZM611.749 104.136L611.316 104.386C603.101 90.1572 600.916 72.7341 605.168 56.8674L605.651 56.9968L606.134 57.1262C601.95 72.7414 604.102 89.8909 612.182 103.886L611.749 104.136ZM605.651 56.9968L605.168 56.8674C626.488 -22.7023 578.829 -105.257 499.255 -126.579L499.384 -127.062L499.514 -127.545C579.622 -106.08 627.597 -22.9769 606.134 57.1262L605.651 56.9968ZM499.384 -127.062L498.951 -126.812L498.95 -126.815L499.383 -127.065L499.816 -127.315L499.817 -127.312L499.384 -127.062Z" data-figma-gradient-fill="{&#34;type&#34;:&#34;GRADIENT_DIAMOND&#34;,&#34;stops&#34;:[{&#34;color&#34;:{&#34;r&#34;:1.0,&#34;g&#34;:1.0,&#34;b&#34;:1.0,&#34;a&#34;:1.0},&#34;position&#34;:0.0},{&#34;color&#34;:{&#34;r&#34;:1.0,&#34;g&#34;:1.0,&#34;b&#34;:1.0,&#34;a&#34;:1.0},&#34;position&#34;:1.0}],&#34;stopsVar&#34;:[{&#34;color&#34;:{&#34;r&#34;:1.0,&#34;g&#34;:1.0,&#34;b&#34;:1.0,&#34;a&#34;:1.0},&#34;position&#34;:0.0},{&#34;color&#34;:{&#34;r&#34;:1.0,&#34;g&#34;:1.0,&#34;b&#34;:1.0,&#34;a&#34;:1.0},&#34;position&#34;:1.0}],&#34;transform&#34;:{&#34;m00&#34;:362.48956298828125,&#34;m01&#34;:627.8378906250,&#34;m02&#34;:-218.67543029785156,&#34;m10&#34;:627.8503417968750,&#34;m11&#34;:-362.48239135742188,&#34;m12&#34;:-8.5176086425781250},&#34;opacity&#34;:1.0,&#34;blendMode&#34;:&#34;NORMAL&#34;,&#34;visible&#34;:true}"/>
</mask>
<g mask="url(#mask0_81_217)">
<g opacity="0.66" filter="url(#filter0_f_81_217)">
<path d="M-379.911 188.957L575.944 34.9937H793.499L344.31 544.661H-379.911V188.957Z" fill="url(#paint2_linear_81_217)"/>
</g>
<g style="mix-blend-mode:color-dodge" opacity="0.92" filter="url(#filter1_f_81_217)">
<path d="M-269.057 251.808L754.641 131.759L1282.96 237.447L506.566 529.159H-269.057V251.808Z" fill="url(#paint3_linear_81_217)"/>
</g>
<g opacity="0.66" filter="url(#filter2_f_81_217)">
<path d="M-379.907 188.957L575.947 34.9937H793.502L344.313 544.661H-379.907V188.957Z" fill="url(#paint4_linear_81_217)"/>
</g>
<g style="mix-blend-mode:color-dodge" opacity="0.92" filter="url(#filter3_f_81_217)">
<path d="M-269.053 251.808L754.645 131.759L1282.97 237.447L506.57 529.159H-269.053V251.808Z" fill="url(#paint5_linear_81_217)"/>
</g>
<g style="mix-blend-mode:overlay">
<path d="M143.002 283.934L204.126 319.223C209.258 322.186 213.237 325.281 216.131 328.53C219.03 331.785 220.914 335.126 221.77 338.491C222.638 341.899 222.514 345.373 221.404 348.897C220.292 352.43 218.273 355.998 215.303 359.581L206.113 370.517C203.815 373.187 201.356 375.393 198.71 377.125C196.03 378.844 193.216 380.12 190.229 380.898C187.207 381.663 184.133 381.964 180.965 381.747C177.769 381.514 174.516 380.749 171.166 379.39L170.675 380.251C173.554 382.455 175.915 384.719 177.775 387.083L177.778 387.087C179.637 389.403 180.8 391.915 181.258 394.539L181.257 394.543C181.738 397.167 181.422 400.054 180.286 403.26C179.157 406.448 176.947 409.979 173.667 413.841L173.665 413.844L165.533 423.575C161.669 428.139 157.642 431.495 153.427 433.646L153.425 433.647C149.225 435.82 144.927 436.993 140.527 437.174L140.522 437.174C136.125 437.398 131.618 436.739 126.995 435.259C122.372 433.748 117.752 431.66 113.08 428.962L50.5906 392.884C46.0254 390.248 42.0858 387.431 38.7985 384.379L38.7956 384.376L38.1909 383.808C35.2274 380.954 33.1488 377.862 31.9353 374.594C30.6347 371.08 30.4411 367.35 31.3333 363.332L31.3343 363.33L31.4168 362.969C32.312 359.226 34.5235 355.203 38.0654 350.947L38.0669 350.945L38.4303 350.503L38.4307 350.504L46.5165 340.852L46.5175 340.851C49.7243 336.988 52.9323 334.055 56.1376 332.038L56.1436 332.033C56.1484 332.031 56.1547 332.03 56.1597 332.027C56.1823 332.014 56.2044 331.998 56.2273 331.98L56.2309 331.978C59.4491 330.008 62.6252 328.712 65.7985 328.131L65.8051 328.129C68.9813 327.504 72.2348 327.557 75.5356 328.172L75.5359 328.173C78.8829 328.808 82.2681 329.822 85.7073 331.193L86.2044 330.338C83.5749 328.246 81.5934 325.993 80.18 323.577C78.8587 321.318 78.1372 319.007 77.9524 316.634L77.9223 316.159C77.8293 314.052 78.1089 311.909 78.806 309.716L78.8088 309.706L78.8121 309.694C78.8732 309.467 78.9414 309.244 79.0151 309.016L79.2536 308.316C80.2542 305.664 81.9204 303.02 84.2153 300.353L84.219 300.349L92.8838 290.011L92.8885 290.004L93.3884 289.389C96.3252 285.862 99.6049 283.047 103.227 280.938C106.845 278.832 110.763 277.509 114.986 276.969C119.205 276.429 123.662 276.736 128.378 277.872L128.379 277.871C133.061 278.99 137.954 281.019 143.002 283.934ZM96.8887 354.719C95.5885 353.968 94.2513 353.46 92.9492 353.204L92.9418 353.203C91.6153 352.963 90.326 352.899 89.1044 353.033C87.8764 353.168 86.7024 353.53 85.6006 354.167C85.2496 354.361 84.9159 354.601 84.6102 354.819L84.6034 354.823C83.9272 355.324 83.2987 355.954 82.7208 356.631L82.719 356.632L77.317 363.024L77.3165 363.025C76.7235 363.728 76.2134 364.471 75.8748 365.256L75.8743 365.257C75.7007 365.626 75.5574 366.01 75.4428 366.411C75.0967 367.621 75.102 368.77 75.3995 369.888L75.399 369.889C75.6804 371.032 76.2381 372.086 77.0164 373.105L77.02 373.111C77.8057 374.109 78.9259 375.017 80.3295 375.828L122.326 400.074C123.731 400.885 125.151 401.444 126.53 401.704L126.537 401.705C127.934 401.949 129.293 402.018 130.669 401.865L130.669 401.863C132.013 401.721 133.279 401.336 134.462 400.626C135.621 399.931 136.644 399.079 137.561 398.017L137.563 398.015L142.993 391.639L142.998 391.632L143.003 391.626C143.825 390.593 144.404 389.537 144.686 388.441L144.687 388.441C145.013 387.332 145.033 386.267 144.785 385.247C144.537 384.23 144.018 383.233 143.249 382.255L143.243 382.248L143.237 382.241C142.416 381.267 141.331 380.378 139.979 379.596L96.8887 354.719ZM135.54 313.96C134.291 313.239 133.083 312.714 131.873 312.39L131.354 312.263C129.994 311.933 128.668 311.852 127.421 312.016C126.176 312.179 124.952 312.581 123.811 313.176L123.804 313.18C122.629 313.812 121.642 314.663 120.753 315.742L115.824 321.698C114.94 322.705 114.34 323.728 114.06 324.767L114.058 324.778C113.795 325.845 113.795 326.874 114.052 327.928C114.312 328.991 114.861 330.007 115.65 330.96L115.661 330.973C116.493 331.911 117.545 332.783 118.847 333.534L156.526 355.289C157.879 356.07 159.239 356.593 160.52 356.876L160.528 356.877C161.846 357.147 163.142 357.21 164.387 357.047C165.653 356.9 166.779 356.551 167.844 355.973L167.844 355.971C168.898 355.418 169.848 354.628 170.75 353.65L170.759 353.64L170.768 353.629L175.707 347.663L175.715 347.653C176.571 346.561 177.165 345.474 177.477 344.323C177.801 343.215 177.824 342.08 177.534 340.999C177.246 339.923 176.668 338.889 175.83 337.944C174.98 336.956 173.909 336.113 172.618 335.368L135.54 313.96Z" stroke="white"/>
<path d="M43.2034 404.902L104.327 440.191C109.459 443.155 113.438 446.249 116.332 449.499C119.231 452.754 121.115 456.094 121.972 459.46C122.839 462.867 122.715 466.341 121.606 469.865C120.493 473.399 118.474 476.966 115.505 480.55L106.314 491.485C104.017 494.155 101.558 496.362 98.9109 498.093C96.2317 499.813 93.4176 501.088 90.4302 501.866C87.4083 502.631 84.3339 502.933 81.166 502.715C77.9707 502.482 74.7174 501.717 71.3675 500.359L70.8761 501.219C73.7555 503.424 76.116 505.687 77.9761 508.051L77.9793 508.055C79.8385 510.372 81.0016 512.883 81.4587 515.507L81.4585 515.511C81.9394 518.136 81.6235 521.022 80.4877 524.228C79.3579 527.416 77.1482 530.947 73.8686 534.81L73.8658 534.813L65.7341 544.544C61.8706 549.107 57.8433 552.463 53.6286 554.615L53.6259 554.615C49.4261 556.788 45.1282 557.961 40.7284 558.142L40.7236 558.142C36.3263 558.366 31.8195 557.707 27.1958 556.228C22.5737 554.716 17.9536 552.628 13.2809 549.93L-49.2082 513.852C-53.7733 511.217 -57.713 508.399 -61.0003 505.347L-61.0032 505.344L-61.6078 504.776C-64.5714 501.922 -66.6499 498.83 -67.8635 495.563C-69.164 492.048 -69.3577 488.318 -68.4655 484.301L-68.4645 484.299L-68.382 483.937C-67.4868 480.195 -65.2753 476.171 -61.7333 471.916L-61.7319 471.913L-61.3685 471.471L-61.3681 471.472L-53.2823 461.821L-53.2813 461.819C-50.0745 457.956 -46.8664 455.023 -43.6611 453.006L-43.6552 453.002C-43.6503 452.999 -43.6441 452.998 -43.639 452.995C-43.6165 452.983 -43.5944 452.966 -43.5715 452.949L-43.5678 452.946C-40.3496 450.976 -37.1735 449.68 -34.0003 449.099L-33.9936 449.097C-30.8174 448.472 -27.564 448.525 -24.2632 449.14L-24.2628 449.142C-20.9159 449.776 -17.5306 450.79 -14.0915 452.161L-13.5943 451.306C-16.2238 449.214 -18.2054 446.961 -19.6188 444.545C-20.9401 442.287 -21.6616 439.975 -21.8464 437.603L-21.8765 437.128C-21.9695 435.02 -21.6899 432.877 -20.9928 430.685L-20.9899 430.674L-20.9866 430.662C-20.9256 430.436 -20.8574 430.212 -20.7836 429.985L-20.5451 429.284C-19.5445 426.633 -17.8783 423.988 -15.5835 421.322L-15.5797 421.317L-6.91501 410.979L-6.91026 410.973L-6.4104 410.357C-3.4736 406.83 -0.193854 404.015 3.42776 401.907C7.04573 399.8 10.9646 398.478 15.1872 397.937C19.4063 397.397 23.8635 397.704 28.5788 398.84L28.5801 398.84C33.2625 399.959 38.1548 401.987 43.2034 404.902ZM-2.91009 475.687C-4.21029 474.936 -5.54743 474.428 -6.8496 474.172L-6.85699 474.172C-8.18344 473.932 -9.47273 473.868 -10.6943 474.002C-11.9224 474.136 -13.0963 474.498 -14.1982 475.135C-14.5492 475.33 -14.8829 475.569 -15.1885 475.788L-15.1953 475.792C-15.8716 476.292 -16.5 476.923 -17.078 477.599L-17.0798 477.601L-22.4818 483.992L-22.4823 483.993C-23.0752 484.697 -23.5854 485.44 -23.9239 486.225L-23.9244 486.225C-24.0981 486.594 -24.2414 486.979 -24.3559 487.379C-24.7021 488.589 -24.6968 489.739 -24.3993 490.856L-24.3998 490.857C-24.1183 492.001 -23.5606 493.055 -22.7824 494.073L-22.7787 494.079C-21.9931 495.078 -20.8729 495.986 -19.4692 496.796L22.5271 521.043C23.9322 521.854 25.3524 522.412 26.7313 522.673L26.7387 522.674C28.1352 522.917 29.4938 522.986 30.8707 522.833L30.8703 522.832C32.2139 522.69 33.48 522.304 34.6631 521.595C35.8225 520.899 36.8455 520.047 37.762 518.985L37.7643 518.983L43.1942 512.607L43.1994 512.6L43.2042 512.594C44.0263 511.562 44.6048 510.505 44.8873 509.409L44.8881 509.41C45.2142 508.3 45.2339 507.236 44.9858 506.215C44.7387 505.198 44.2193 504.201 43.4499 503.223L43.4446 503.217L43.4385 503.21C42.6168 502.236 41.5327 501.346 40.1798 500.565L-2.91009 475.687ZM35.741 434.929C34.4919 434.208 33.2847 433.683 32.0739 433.359L31.5552 433.232C30.1951 432.902 28.8689 432.821 27.6227 432.984C26.3777 433.148 25.1537 433.55 24.0118 434.145L24.0055 434.148C22.8306 434.781 21.8428 435.631 20.954 436.711L16.0257 442.666C15.1407 443.674 14.5416 444.696 14.2616 445.736L14.2588 445.746C13.9965 446.813 13.9961 447.842 14.2535 448.896C14.5131 449.959 15.0625 450.975 15.8517 451.929L15.8623 451.942C16.6939 452.88 17.7465 453.751 19.0478 454.502L56.7275 476.257C58.0804 477.038 59.4404 477.561 60.7208 477.844L60.729 477.845C62.0473 478.115 63.3437 478.179 64.5878 478.015C65.8546 477.868 66.9801 477.519 68.0453 476.941L68.0449 476.94C69.0993 476.386 70.0497 475.596 70.9515 474.618L70.9604 474.609L70.969 474.598L75.9079 468.631L75.9159 468.621C76.7727 467.53 77.3659 466.443 77.6782 465.291C78.0019 464.183 78.0251 463.049 77.7355 461.968C77.4472 460.891 76.8695 459.858 76.031 458.912C75.1816 457.924 74.1106 457.082 72.8194 456.336L35.741 434.929Z" stroke="white"/>
<path d="M224.106 428.53L285.229 463.819C290.362 466.782 294.34 469.877 297.235 473.126C300.134 476.381 302.018 479.722 302.874 483.087C303.742 486.495 303.617 489.969 302.508 493.493C301.396 497.026 299.377 500.594 296.407 504.177L287.217 515.113C284.919 517.783 282.46 519.989 279.814 521.721C277.134 523.44 274.32 524.716 271.333 525.494C268.311 526.258 265.237 526.56 262.069 526.343C258.873 526.11 255.62 525.345 252.27 523.986L251.779 524.847C254.658 527.051 257.019 529.314 258.879 531.679L258.882 531.683C260.741 533.999 261.904 536.511 262.361 539.135L262.361 539.139C262.842 541.763 262.526 544.65 261.39 547.856C260.261 551.044 258.051 554.575 254.771 558.437L254.768 558.44L246.637 568.171C242.773 572.735 238.746 576.091 234.531 578.242L234.529 578.243C230.329 580.416 226.031 581.589 221.631 581.77L221.626 581.77C217.229 581.994 212.722 581.335 208.098 579.855C203.476 578.344 198.856 576.256 194.184 573.558L131.694 537.48C127.129 534.844 123.19 532.027 119.902 528.975L119.899 528.972L119.295 528.404C116.331 525.55 114.253 522.458 113.039 519.19C111.739 515.676 111.545 511.946 112.437 507.928L112.438 507.926L112.521 507.565C113.416 503.822 115.627 499.799 119.169 495.543L119.171 495.541L119.534 495.099L119.535 495.1L127.62 485.448L127.621 485.447C130.828 481.584 134.036 478.651 137.242 476.634L137.247 476.629C137.252 476.627 137.259 476.626 137.264 476.623C137.286 476.61 137.308 476.594 137.331 476.576L137.335 476.574C140.553 474.604 143.729 473.308 146.902 472.727L146.909 472.725C150.085 472.1 153.339 472.153 156.639 472.768L156.64 472.769C159.987 473.404 163.372 474.418 166.811 475.789L167.308 474.934C164.679 472.841 162.697 470.589 161.284 468.173C159.963 465.914 159.241 463.603 159.056 461.23L159.026 460.755C158.933 458.648 159.213 456.505 159.91 454.312L159.913 454.302L159.916 454.29C159.977 454.063 160.045 453.84 160.119 453.612L160.358 452.912C161.358 450.26 163.024 447.616 165.319 444.949L165.323 444.945L173.988 434.607L173.992 434.6L174.492 433.985C177.429 430.457 180.709 427.643 184.33 425.534C187.948 423.428 191.867 422.105 196.09 421.565C200.309 421.025 204.766 421.332 209.481 422.468L209.483 422.467C214.165 423.586 219.057 425.615 224.106 428.53ZM177.993 499.315C176.692 498.564 175.355 498.056 174.053 497.8L174.046 497.799C172.719 497.559 171.43 497.495 170.208 497.629C168.98 497.764 167.806 498.126 166.704 498.763C166.353 498.957 166.02 499.197 165.714 499.415L165.707 499.419C165.031 499.92 164.403 500.55 163.825 501.227L163.823 501.228L158.421 507.62L158.42 507.621C157.827 508.324 157.317 509.067 156.979 509.852L156.978 509.853C156.805 510.222 156.661 510.606 156.547 511.007C156.201 512.217 156.206 513.366 156.503 514.484L156.503 514.485C156.784 515.628 157.342 516.682 158.12 517.701L158.124 517.707C158.91 518.705 160.03 519.613 161.433 520.424L203.43 544.67C204.835 545.481 206.255 546.039 207.634 546.3L207.641 546.301C209.038 546.545 210.396 546.614 211.773 546.461L211.773 546.459C213.117 546.317 214.383 545.932 215.566 545.222C216.725 544.527 217.748 543.675 218.665 542.613L218.667 542.611L224.097 536.235L224.102 536.228L224.107 536.222C224.929 535.189 225.507 534.133 225.79 533.037L225.791 533.037C226.117 531.928 226.137 530.863 225.888 529.843C225.641 528.826 225.122 527.829 224.353 526.851L224.347 526.844L224.341 526.837C223.519 525.863 222.435 524.974 221.082 524.192L177.993 499.315ZM216.644 458.556C215.395 457.835 214.187 457.31 212.977 456.986L212.458 456.859C211.098 456.529 209.772 456.448 208.525 456.612C207.28 456.775 206.056 457.177 204.914 457.772L204.908 457.776C203.733 458.408 202.745 459.259 201.857 460.338L196.928 466.294C196.043 467.301 195.444 468.324 195.164 469.363L195.161 469.374C194.899 470.441 194.899 471.47 195.156 472.524C195.416 473.587 195.965 474.603 196.754 475.556L196.765 475.569C197.597 476.507 198.649 477.379 199.95 478.13L237.63 499.884C238.983 500.666 240.343 501.189 241.623 501.472L241.632 501.473C242.95 501.743 244.246 501.806 245.49 501.643C246.757 501.496 247.883 501.147 248.948 500.569L248.948 500.567C250.002 500.013 250.952 499.224 251.854 498.246L251.863 498.236L251.872 498.225L256.811 492.259L256.819 492.249C257.675 491.157 258.269 490.07 258.581 488.919C258.905 487.811 258.928 486.676 258.638 485.595C258.35 484.519 257.772 483.485 256.934 482.54C256.084 481.552 255.013 480.709 253.722 479.964L216.644 458.556Z" stroke="white"/>
<path d="M328.883 305.797L390.007 341.087C395.139 344.05 399.118 347.144 402.012 350.394C404.911 353.649 406.795 356.989 407.652 360.355C408.519 363.763 408.395 367.237 407.286 370.76C406.173 374.294 404.154 377.861 401.185 381.445L391.994 392.38C389.697 395.051 387.238 397.257 384.591 398.989C381.912 400.708 379.098 401.983 376.11 402.762C373.088 403.526 370.014 403.828 366.846 403.611C363.651 403.377 360.397 402.613 357.047 401.254L356.556 402.115C359.436 404.319 361.796 406.582 363.656 408.946L363.659 408.95C365.518 411.267 366.682 413.779 367.139 416.402L367.138 416.407C367.619 419.031 367.303 421.918 366.168 425.123C365.038 428.312 362.828 431.843 359.549 435.705L359.546 435.708L351.414 445.439C347.551 450.003 343.523 453.358 339.309 455.51L339.306 455.511C335.106 457.684 330.808 458.857 326.408 459.037L326.404 459.038C322.006 459.261 317.499 458.603 312.876 457.123C308.254 455.611 303.634 453.524 298.961 450.826L236.472 414.748C231.907 412.112 227.967 409.295 224.68 406.242L224.677 406.24L224.072 405.672C221.109 402.817 219.03 399.726 217.817 396.458C216.516 392.943 216.322 389.214 217.215 385.196L217.215 385.194L217.298 384.833C218.193 381.09 220.405 377.067 223.947 372.811L223.948 372.808L224.312 372.366L224.312 372.368L232.398 362.716L232.399 362.715C235.606 358.851 238.814 355.918 242.019 353.902L242.025 353.897C242.03 353.895 242.036 353.893 242.041 353.891C242.064 353.878 242.086 353.862 242.109 353.844L242.112 353.842C245.33 351.871 248.506 350.575 251.68 349.995L251.686 349.993C254.863 349.368 258.116 349.421 261.417 350.036L261.417 350.037C264.764 350.671 268.149 351.686 271.588 353.057L272.086 352.201C269.456 350.109 267.475 347.856 266.061 345.441C264.74 343.182 264.018 340.87 263.834 338.498L263.803 338.023C263.711 335.915 263.99 333.773 264.687 331.58L264.69 331.569L264.693 331.558C264.754 331.331 264.823 331.107 264.896 330.88L265.135 330.18C266.135 327.528 267.802 324.884 270.096 322.217L270.1 322.212L278.765 311.875L278.77 311.868L279.27 311.252C282.206 307.725 285.486 304.911 289.108 302.802C292.726 300.696 296.645 299.373 300.867 298.833C305.086 298.293 309.543 298.599 314.259 299.735L314.26 299.735C318.942 300.854 323.835 302.882 328.883 305.797ZM282.77 376.582C281.47 375.832 280.133 375.324 278.83 375.068L278.823 375.067C277.497 374.827 276.207 374.763 274.986 374.897C273.758 375.032 272.584 375.394 271.482 376.03C271.131 376.225 270.797 376.465 270.491 376.683L270.485 376.687C269.808 377.188 269.18 377.818 268.602 378.495L268.6 378.496L263.198 384.888L263.198 384.889C262.605 385.592 262.095 386.335 261.756 387.12L261.756 387.121C261.582 387.489 261.439 387.874 261.324 388.274C260.978 389.484 260.983 390.634 261.281 391.752L261.28 391.753C261.562 392.896 262.119 393.95 262.898 394.969L262.901 394.974C263.687 395.973 264.807 396.881 266.211 397.691L308.207 421.938C309.612 422.749 311.032 423.307 312.411 423.568L312.419 423.569C313.815 423.813 315.174 423.881 316.551 423.729L316.55 423.727C317.894 423.585 319.16 423.2 320.343 422.49C321.502 421.795 322.526 420.943 323.442 419.88L323.444 419.878L328.874 413.503L328.879 413.496L328.884 413.489C329.706 412.457 330.285 411.401 330.567 410.305L330.568 410.305C330.894 409.195 330.914 408.131 330.666 407.111C330.419 406.094 329.899 405.096 329.13 404.118L329.125 404.112L329.118 404.105C328.297 403.131 327.213 402.241 325.86 401.46L282.77 376.582ZM321.421 335.824C320.172 335.103 318.965 334.578 317.754 334.254L317.235 334.127C315.875 333.797 314.549 333.716 313.303 333.88C312.058 334.043 310.834 334.445 309.692 335.04L309.685 335.043C308.511 335.676 307.523 336.527 306.634 337.606L301.706 343.562C300.821 344.569 300.222 345.592 299.942 346.631L299.939 346.642C299.676 347.709 299.676 348.737 299.933 349.792C300.193 350.855 300.742 351.871 301.532 352.824L301.542 352.837C302.374 353.775 303.427 354.647 304.728 355.398L342.407 377.152C343.76 377.933 345.12 378.456 346.401 378.74L346.409 378.741C347.727 379.011 349.024 379.074 350.268 378.911C351.535 378.764 352.66 378.415 353.725 377.836L353.725 377.835C354.779 377.281 355.73 376.492 356.632 375.514L356.64 375.504L356.649 375.493L361.588 369.526L361.596 369.516C362.453 368.425 363.046 367.338 363.358 366.187C363.682 365.079 363.705 363.944 363.415 362.863C363.127 361.787 362.549 360.753 361.711 359.807C360.862 358.82 359.791 357.977 358.499 357.231L321.421 335.824Z" stroke="white"/>
<path d="M59.4224 139.684L120.546 174.974C125.678 177.937 129.657 181.031 132.551 184.281C135.45 187.536 137.334 190.876 138.191 194.242C139.058 197.649 138.934 201.123 137.825 204.647C136.712 208.181 134.693 211.748 131.724 215.332L122.533 226.267C120.236 228.937 117.777 231.144 115.13 232.876C112.451 234.595 109.637 235.87 106.649 236.649C103.627 237.413 100.553 237.715 97.385 237.497C94.1897 237.264 90.9364 236.5 87.5865 235.141L87.0951 236.002C89.9745 238.206 92.335 240.469 94.195 242.833L94.1983 242.837C96.0575 245.154 97.2206 247.666 97.6777 250.289L97.6775 250.293C98.1584 252.918 97.8425 255.804 96.7067 259.01C95.5769 262.199 93.3672 265.73 90.0876 269.592L90.0848 269.595L81.9531 279.326C78.0896 283.889 74.0623 287.245 69.8476 289.397L69.8449 289.397C65.6451 291.571 61.3472 292.743 56.9474 292.924L56.9425 292.925C52.5452 293.148 48.0385 292.489 43.4148 291.01C38.7927 289.498 34.1726 287.41 29.4999 284.712L-32.9892 248.634C-37.5543 245.999 -41.494 243.181 -44.7813 240.129L-44.7842 240.126L-45.3888 239.558C-48.3524 236.704 -50.4309 233.613 -51.6445 230.345C-52.945 226.83 -53.1387 223.101 -52.2465 219.083L-52.2455 219.081L-52.163 218.719C-51.2678 214.977 -49.0563 210.953 -45.5143 206.698L-45.5129 206.695L-45.1495 206.253L-45.1491 206.255L-37.0633 196.603L-37.0623 196.601C-33.8555 192.738 -30.6474 189.805 -27.4421 187.788L-27.4362 187.784C-27.4313 187.781 -27.4251 187.78 -27.4201 187.777C-27.3975 187.765 -27.3754 187.748 -27.3525 187.731L-27.3489 187.728C-24.1306 185.758 -20.9545 184.462 -17.7813 183.881L-17.7746 183.88C-14.5984 183.254 -11.345 183.308 -8.04419 183.922L-8.04383 183.924C-4.69688 184.558 -1.31163 185.573 2.12748 186.943L2.62464 186.088C-0.00483117 183.996 -1.9864 181.743 -3.39976 179.327C-4.72112 177.069 -5.44259 174.757 -5.62741 172.385L-5.65752 171.91C-5.75047 169.802 -5.47089 167.659 -4.77378 165.467L-4.77095 165.456L-4.76763 165.445C-4.70658 165.218 -4.63838 164.994 -4.56462 164.767L-4.32615 164.067C-3.32553 161.415 -1.65936 158.771 0.635494 156.104L0.639269 156.099L9.30398 145.761L9.30873 145.755L9.80859 145.139C12.7454 141.612 16.0251 138.797 19.6468 136.689C23.2647 134.583 27.1835 133.26 31.4062 132.719C35.6253 132.179 40.0825 132.486 44.7978 133.622L44.7991 133.622C49.4815 134.741 54.3738 136.769 59.4224 139.684ZM13.3089 210.469C12.0087 209.718 10.6716 209.21 9.36939 208.955L9.36201 208.954C8.03555 208.714 6.74626 208.65 5.52468 208.784C4.29658 208.918 3.12267 209.281 2.02082 209.917C1.66983 210.112 1.33613 210.351 1.03047 210.57L1.02367 210.574C0.347434 211.074 -0.281033 211.705 -0.858967 212.382L-0.86079 212.383L-6.26277 218.774L-6.26326 218.775C-6.85622 219.479 -7.36637 220.222 -7.70494 221.007L-7.70542 221.008C-7.87912 221.376 -8.02241 221.761 -8.13693 222.161C-8.48308 223.371 -8.47781 224.521 -8.18028 225.639L-8.18077 225.639C-7.89935 226.783 -7.34163 227.837 -6.56336 228.856L-6.55975 228.861C-5.77409 229.86 -4.65392 230.768 -3.25025 231.578L38.7461 255.825C40.1512 256.636 41.5714 257.194 42.9503 257.455L42.9577 257.456C44.3542 257.699 45.7128 257.768 47.0897 257.615L47.0893 257.614C48.4329 257.472 49.699 257.086 50.882 256.377C52.0415 255.682 53.0645 254.829 53.981 253.767L53.9833 253.765L59.4132 247.389L59.4184 247.382L59.4232 247.376C60.2453 246.344 60.8238 245.287 61.1063 244.191L61.1071 244.192C61.4332 243.082 61.4529 242.018 61.2048 240.997C60.9577 239.981 60.4382 238.983 59.6689 238.005L59.6636 237.999L59.6574 237.992C58.8358 237.018 57.7517 236.128 56.3987 235.347L13.3089 210.469ZM51.96 169.711C50.7109 168.99 49.5037 168.465 48.2929 168.141L47.7741 168.014C46.4141 167.684 45.0878 167.603 43.8417 167.766C42.5967 167.93 41.3727 168.332 40.2308 168.927L40.2245 168.93C39.0496 169.563 38.0618 170.413 37.173 171.493L32.2447 177.449C31.3597 178.456 30.7606 179.478 30.4806 180.518L30.4778 180.529C30.2155 181.595 30.2151 182.624 30.4725 183.678C30.7321 184.742 31.2815 185.758 32.0707 186.711L32.0813 186.724C32.9129 187.662 33.9655 188.533 35.2668 189.285L72.9465 211.039C74.2994 211.82 75.6594 212.343 76.9398 212.626L76.948 212.628C78.2663 212.897 79.5627 212.961 80.8068 212.798C82.0736 212.651 83.1991 212.301 84.2642 211.723L84.2639 211.722C85.3183 211.168 86.2687 210.378 87.1705 209.4L87.1794 209.391L87.188 209.38L92.1269 203.413L92.1349 203.403C92.9917 202.312 93.5849 201.225 93.8972 200.074C94.2209 198.965 94.2441 197.831 93.9545 196.75C93.6662 195.673 93.0885 194.64 92.25 193.694C91.4006 192.706 90.3296 191.864 89.0384 191.118L51.96 169.711Z" stroke="white"/>
<path d="M246.353 158.73L307.477 194.019C312.609 196.983 316.588 200.077 319.482 203.327C322.381 206.582 324.265 209.922 325.122 213.288C325.989 216.695 325.865 220.169 324.756 223.693C323.643 227.227 321.624 230.794 318.654 234.378L309.464 245.313C307.167 247.983 304.708 250.19 302.061 251.921C299.381 253.641 296.567 254.916 293.58 255.694C290.558 256.459 287.484 256.761 284.316 256.543C281.121 256.31 277.867 255.545 274.517 254.187L274.026 255.047C276.905 257.252 279.266 259.515 281.126 261.879L281.129 261.883C282.988 264.2 284.151 266.711 284.609 269.335L284.608 269.339C285.089 271.964 284.773 274.85 283.638 278.056C282.508 281.244 280.298 284.775 277.018 288.638L277.016 288.641L268.884 298.372C265.02 302.935 260.993 306.291 256.778 308.443L256.776 308.443C252.576 310.616 248.278 311.789 243.878 311.97L243.873 311.97C239.476 312.194 234.969 311.535 230.346 310.056C225.724 308.544 221.103 306.456 216.431 303.758L153.942 267.68C149.377 265.045 145.437 262.227 142.15 259.175L142.147 259.172L141.542 258.604C138.578 255.75 136.5 252.658 135.286 249.391C133.986 245.876 133.792 242.146 134.684 238.129L134.685 238.127L134.768 237.765C135.663 234.023 137.875 229.999 141.417 225.744L141.418 225.741L141.781 225.299L141.782 225.3L149.868 215.649L149.869 215.647C153.075 211.784 156.283 208.851 159.489 206.834L159.495 206.83C159.5 206.827 159.506 206.826 159.511 206.823C159.533 206.811 159.555 206.794 159.578 206.777L159.582 206.774C162.8 204.804 165.976 203.508 169.15 202.927L169.156 202.925C172.332 202.3 175.586 202.353 178.887 202.968L178.887 202.97C182.234 203.604 185.619 204.618 189.058 205.989L189.555 205.134C186.926 203.042 184.944 200.789 183.531 198.373C182.21 196.115 181.488 193.803 181.303 191.431L181.273 190.956C181.18 188.848 181.46 186.705 182.157 184.513L182.16 184.502L182.163 184.49C182.224 184.264 182.292 184.04 182.366 183.813L182.605 183.112C183.605 180.461 185.271 177.816 187.566 175.15L187.57 175.145L196.235 164.807L196.24 164.801L196.739 164.185C199.676 160.658 202.956 157.843 206.578 155.735C210.196 153.628 214.114 152.306 218.337 151.765C222.556 151.225 227.013 151.532 231.729 152.668L231.73 152.668C236.412 153.787 241.305 155.815 246.353 158.73ZM200.24 229.515C198.94 228.764 197.602 228.256 196.3 228L196.293 228C194.966 227.76 193.677 227.696 192.456 227.83C191.227 227.964 190.054 228.326 188.952 228.963C188.601 229.158 188.267 229.397 187.961 229.616L187.955 229.62C187.278 230.12 186.65 230.751 186.072 231.427L186.07 231.429L180.668 237.82L180.668 237.821C180.075 238.525 179.564 239.268 179.226 240.053L179.225 240.053C179.052 240.422 178.908 240.807 178.794 241.207C178.448 242.417 178.453 243.567 178.751 244.684L178.75 244.685C179.031 245.829 179.589 246.883 180.367 247.901L180.371 247.907C181.157 248.906 182.277 249.814 183.681 250.624L225.677 274.871C227.082 275.682 228.502 276.24 229.881 276.501L229.889 276.502C231.285 276.745 232.644 276.814 234.021 276.661L234.02 276.66C235.364 276.518 236.63 276.132 237.813 275.423C238.972 274.727 239.995 273.875 240.912 272.813L240.914 272.811L246.344 266.435L246.349 266.428L246.354 266.422C247.176 265.39 247.755 264.333 248.037 263.237L248.038 263.238C248.364 262.128 248.384 261.064 248.136 260.043C247.889 259.026 247.369 258.029 246.6 257.051L246.594 257.045L246.588 257.038C245.767 256.064 244.683 255.174 243.33 254.393L200.24 229.515ZM238.891 188.757C237.642 188.036 236.435 187.511 235.224 187.187L234.705 187.06C233.345 186.73 232.019 186.649 230.773 186.812C229.528 186.976 228.304 187.378 227.162 187.973L227.155 187.976C225.98 188.609 224.993 189.459 224.104 190.539L219.176 196.494C218.291 197.502 217.691 198.524 217.411 199.564L217.409 199.574C217.146 200.641 217.146 201.67 217.403 202.724C217.663 203.787 218.212 204.803 219.002 205.757L219.012 205.77C219.844 206.708 220.896 207.579 222.198 208.33L259.877 230.085C261.23 230.866 262.59 231.389 263.871 231.672L263.879 231.673C265.197 231.943 266.494 232.007 267.738 231.843C269.004 231.696 270.13 231.347 271.195 230.769L271.195 230.768C272.249 230.214 273.2 229.424 274.101 228.446L274.11 228.437L274.119 228.426L279.058 222.459L279.066 222.449C279.923 221.358 280.516 220.271 280.828 219.119C281.152 218.011 281.175 216.877 280.885 215.796C280.597 214.719 280.019 213.686 279.181 212.74C278.331 211.752 277.26 210.91 275.969 210.164L238.891 188.757Z" stroke="white"/>
</g>
</g>
<defs>
<clipPath id="paint0_diamond_81_217_clip_path"><path d="M498.992 -125.812L499.121 -126.295L499.321 -126.242L499.425 -126.062L498.992 -125.812ZM208.672 -203.603L208.801 -204.086L208.801 -204.086L208.672 -203.603ZM24.6158 -97.3387L24.1321 -97.4651L24.1328 -97.4681L24.6158 -97.3387ZM24.6145 -97.3339L25.0983 -97.2074L25.0975 -97.2045L24.6145 -97.3339ZM343.524 454.439L343.654 453.957L343.654 453.957L343.524 454.439ZM527.582 348.178L528.065 348.307L528.065 348.307L527.582 348.178ZM498.994 -125.809L498.864 -125.326L498.664 -125.38L498.561 -125.559L498.994 -125.809ZM498.992 -125.812L498.863 -125.329C482.848 -129.62 468.928 -140.301 460.638 -154.66L461.071 -154.91L461.504 -155.16C469.661 -141.031 483.363 -130.517 499.121 -126.295L498.992 -125.812ZM461.071 -154.91L460.638 -154.66C419.446 -226.005 327.376 -250.675 256.031 -209.484L255.781 -209.917L255.531 -210.35C327.354 -251.818 420.036 -226.984 461.504 -155.16L461.071 -154.91ZM255.781 -209.917L256.031 -209.484L256.024 -209.481L255.774 -209.914L255.524 -210.347L255.531 -210.35L255.781 -209.917ZM255.774 -209.914L256.024 -209.481C241.803 -201.27 224.41 -198.866 208.542 -203.12L208.672 -203.603L208.801 -204.086C224.408 -199.902 241.528 -202.266 255.524 -210.347L255.774 -209.914ZM208.672 -203.603L208.542 -203.12C128.972 -224.441 46.4176 -176.782 25.0988 -97.2093L24.6158 -97.3387L24.1328 -97.4681C45.5946 -177.574 128.698 -225.55 208.801 -204.086L208.672 -203.603ZM24.6158 -97.3387L25.0996 -97.2122L25.0983 -97.2074L24.6145 -97.3339L24.1308 -97.4603L24.1321 -97.4651L24.6158 -97.3387ZM24.6145 -97.3339L25.0975 -97.2045C20.8545 -81.3692 10.2942 -67.6081 -3.90515 -59.4101L-4.15515 -59.8431L-4.40515 -60.2761C9.56456 -68.3416 19.9572 -81.8843 24.1316 -97.4633L24.6145 -97.3339ZM-4.15515 -59.8431L-3.90515 -59.4101C-75.2477 -18.2205 -99.9209 73.8515 -58.7295 145.197L-59.1625 145.447L-59.5955 145.697C-101.063 73.8732 -76.2259 -18.8104 -4.40515 -60.2761L-4.15515 -59.8431ZM-59.1625 145.447L-58.7295 145.197C-50.5143 159.426 -48.3297 176.849 -52.5812 192.716L-53.0641 192.586L-53.5471 192.457C-49.3631 176.842 -51.5153 159.692 -59.5955 145.697L-59.1625 145.447ZM-53.0641 192.586L-52.5812 192.716C-73.9031 272.29 -26.2411 354.843 53.3286 376.164L53.1992 376.647L53.0698 377.13C-27.0333 355.666 -75.012 272.565 -53.5471 192.457L-53.0641 192.586ZM53.1992 376.647L53.3286 376.164C69.3428 380.455 83.2633 391.136 91.5534 405.495L91.1204 405.745L90.6874 405.995C82.5299 391.865 68.8277 381.352 53.0698 377.13L53.1992 376.647ZM91.1204 405.745L91.5534 405.495C132.745 476.84 224.821 501.507 296.161 460.319L296.411 460.752L296.661 461.185C224.843 502.649 132.155 477.818 90.6874 405.995L91.1204 405.745ZM296.411 460.752L296.161 460.319C310.385 452.106 327.784 449.707 343.654 453.957L343.524 454.439L343.395 454.922C327.786 450.743 310.66 453.102 296.661 461.185L296.411 460.752ZM343.524 454.439L343.654 453.957C423.225 475.28 505.775 427.62 527.099 348.048L527.582 348.178L528.065 348.307C506.598 428.412 423.5 476.389 343.395 454.922L343.524 454.439ZM527.582 348.178L527.099 348.049C531.341 332.205 541.897 318.443 556.099 310.243L556.349 310.676L556.599 311.109C542.627 319.176 532.239 332.72 528.065 348.307L527.582 348.178ZM556.349 310.676L556.099 310.243C627.442 269.054 652.115 176.982 610.925 105.639L611.358 105.389L611.791 105.139C653.257 176.96 628.42 269.643 556.599 311.109L556.349 310.676ZM611.358 105.389L610.925 105.639C602.71 91.4101 600.526 73.987 604.777 58.1203L605.26 58.2497L605.743 58.3791C601.559 73.9943 603.711 91.1439 611.791 105.139L611.358 105.389ZM605.26 58.2497L604.777 58.1203C626.098 -21.4494 578.439 -104.004 498.864 -125.326L498.994 -125.809L499.123 -126.292C579.231 -104.827 627.207 -21.724 605.743 58.3791L605.26 58.2497ZM498.994 -125.809L498.561 -125.559L498.559 -125.562L498.992 -125.812L499.425 -126.062L499.427 -126.059L498.994 -125.809Z"/></clipPath><clipPath id="paint1_diamond_81_217_clip_path"><path d="M499.383 -127.065L499.512 -127.548L499.712 -127.494L499.816 -127.315L499.383 -127.065ZM209.062 -204.856L209.192 -205.339L209.192 -205.339L209.062 -204.856ZM25.0064 -98.5916L24.5229 -98.7189L24.5235 -98.721L25.0064 -98.5916ZM25.0052 -98.5868L25.4887 -98.4595L25.4881 -98.4574L25.0052 -98.5868ZM-52.6735 191.334L-53.1565 191.204L-52.6735 191.334ZM53.5898 375.394L53.7193 374.911L53.5898 375.394ZM343.915 453.187L344.044 452.704L344.044 452.704L343.915 453.187ZM527.973 346.925L528.456 347.054L528.456 347.054L527.973 346.925ZM605.651 56.9968L605.168 56.8674L605.651 56.9968ZM499.384 -127.062L499.255 -126.579L499.055 -126.633L498.951 -126.812L499.384 -127.062ZM499.383 -127.065L499.253 -126.582C483.239 -130.873 469.318 -141.554 461.028 -155.913L461.461 -156.163L461.894 -156.413C470.052 -142.284 483.754 -131.77 499.512 -127.548L499.383 -127.065ZM461.461 -156.163L461.028 -155.913C419.837 -227.258 327.767 -251.928 256.421 -210.737L256.171 -211.17L255.921 -211.603C327.745 -253.071 420.427 -228.237 461.894 -156.413L461.461 -156.163ZM256.171 -211.17L256.421 -210.737L256.415 -210.733L256.165 -211.166L255.915 -211.599L255.921 -211.603L256.171 -211.17ZM256.165 -211.166L256.415 -210.733C242.193 -202.523 224.801 -200.119 208.933 -204.373L209.062 -204.856L209.192 -205.339C224.799 -201.155 241.919 -203.519 255.915 -211.599L256.165 -211.166ZM209.062 -204.856L208.933 -204.373C129.363 -225.694 46.8083 -178.035 25.4894 -98.4622L25.0064 -98.5916L24.5235 -98.721C45.9853 -178.827 129.088 -226.803 209.192 -205.339L209.062 -204.856ZM25.0064 -98.5916L25.4899 -98.4643L25.4887 -98.4595L25.0052 -98.5868L24.5217 -98.7141L24.5229 -98.7189L25.0064 -98.5916ZM25.0052 -98.5868L25.4881 -98.4574C21.2451 -82.6221 10.6849 -68.8611 -3.51452 -60.663L-3.76452 -61.0961L-4.01452 -61.5291C9.95521 -69.5945 20.3478 -83.1372 24.5222 -98.7162L25.0052 -98.5868ZM-3.76452 -61.0961L-3.51452 -60.663C-74.857 -19.4734 -99.5302 72.5985 -58.3388 143.944L-58.7718 144.194L-59.2049 144.444C-100.672 72.6202 -75.8353 -20.0633 -4.01452 -61.5291L-3.76452 -61.0961ZM-58.7718 144.194L-58.3388 143.944C-50.1237 158.173 -47.9391 175.596 -52.1905 191.463L-52.6735 191.334L-53.1565 191.204C-48.9724 175.589 -51.1247 158.439 -59.2049 144.444L-58.7718 144.194ZM-52.6735 191.334L-52.1905 191.463C-73.5125 271.037 -25.8504 353.591 53.7193 374.911L53.5898 375.394L53.4604 375.877C-26.6427 354.413 -74.6213 271.312 -53.1565 191.204L-52.6735 191.334ZM53.5898 375.394L53.7193 374.911C69.7334 379.202 83.654 389.883 91.944 404.242L91.511 404.492L91.078 404.742C82.9206 390.613 69.2184 380.099 53.4604 375.877L53.5898 375.394ZM91.511 404.492L91.944 404.242C133.135 475.587 225.212 500.254 296.551 459.066L296.801 459.499L297.051 459.932C225.233 501.396 132.546 476.566 91.078 404.742L91.511 404.492ZM296.801 459.499L296.551 459.066C310.776 450.853 328.175 448.454 344.044 452.704L343.915 453.187L343.786 453.67C328.177 449.49 311.051 451.849 297.051 459.932L296.801 459.499ZM343.915 453.187L344.044 452.704C423.616 474.027 506.166 426.367 527.49 346.796L527.973 346.925L528.456 347.054C506.989 427.159 423.891 475.136 343.786 453.669L343.915 453.187ZM527.973 346.925L527.49 346.796C531.732 330.953 542.287 317.19 556.49 308.99L556.74 309.423L556.99 309.856C543.017 317.923 532.629 331.467 528.456 347.054L527.973 346.925ZM556.74 309.423L556.49 308.99C627.833 267.801 652.506 175.729 611.316 104.386L611.749 104.136L612.182 103.886C653.648 175.707 628.811 268.391 556.99 309.856L556.74 309.423ZM611.749 104.136L611.316 104.386C603.101 90.1572 600.916 72.7341 605.168 56.8674L605.651 56.9968L606.134 57.1262C601.95 72.7414 604.102 89.8909 612.182 103.886L611.749 104.136ZM605.651 56.9968L605.168 56.8674C626.488 -22.7023 578.829 -105.257 499.255 -126.579L499.384 -127.062L499.514 -127.545C579.622 -106.08 627.597 -22.9769 606.134 57.1262L605.651 56.9968ZM499.384 -127.062L498.951 -126.812L498.95 -126.815L499.383 -127.065L499.816 -127.315L499.817 -127.312L499.384 -127.062Z"/></clipPath><filter id="filter0_f_81_217" x="-547.235" y="-132.331" width="1508.06" height="844.316" filterUnits="userSpaceOnUse" color-interpolation-filters="sRGB">
<feFlood flood-opacity="0" result="BackgroundImageFix"/>
<feBlend mode="normal" in="SourceGraphic" in2="BackgroundImageFix" result="shape"/>
<feGaussianBlur stdDeviation="83.6622" result="effect1_foregroundBlur_81_217"/>
</filter>
<filter id="filter1_f_81_217" x="-317.637" y="83.1784" width="1649.18" height="494.561" filterUnits="userSpaceOnUse" color-interpolation-filters="sRGB">
<feFlood flood-opacity="0" result="BackgroundImageFix"/>
<feBlend mode="normal" in="SourceGraphic" in2="BackgroundImageFix" result="shape"/>
<feGaussianBlur stdDeviation="24.2903" result="effect1_foregroundBlur_81_217"/>
</filter>
<filter id="filter2_f_81_217" x="-547.231" y="-132.331" width="1508.06" height="844.316" filterUnits="userSpaceOnUse" color-interpolation-filters="sRGB">
<feFlood flood-opacity="0" result="BackgroundImageFix"/>
<feBlend mode="normal" in="SourceGraphic" in2="BackgroundImageFix" result="shape"/>
<feGaussianBlur stdDeviation="83.6622" result="effect1_foregroundBlur_81_217"/>
</filter>
<filter id="filter3_f_81_217" x="-317.634" y="83.1784" width="1649.18" height="494.561" filterUnits="userSpaceOnUse" color-interpolation-filters="sRGB">
<feFlood flood-opacity="0" result="BackgroundImageFix"/>
<feBlend mode="normal" in="SourceGraphic" in2="BackgroundImageFix" result="shape"/>
<feGaussianBlur stdDeviation="24.2903" result="effect1_foregroundBlur_81_217"/>
</filter>
<linearGradient id="paint0_diamond_81_217" x1="0" y1="0" x2="500" y2="500" gradientUnits="userSpaceOnUse">
<stop stop-color="white"/>
<stop offset="1" stop-color="white"/>
</linearGradient>
<linearGradient id="paint1_diamond_81_217" x1="0" y1="0" x2="500" y2="500" gradientUnits="userSpaceOnUse">
<stop stop-color="white"/>
<stop offset="1" stop-color="white"/>
</linearGradient>
<linearGradient id="paint2_linear_81_217" x1="812.863" y1="-20.0266" x2="-97.1649" y2="647.543" gradientUnits="userSpaceOnUse">
<stop stop-color="#E20000"/>
<stop offset="1" stop-color="#730B0B" stop-opacity="0"/>
</linearGradient>
<linearGradient id="paint3_linear_81_217" x1="1008.38" y1="88.8585" x2="264.496" y2="838.38" gradientUnits="userSpaceOnUse">
<stop stop-color="#FF7474"/>
<stop offset="1" stop-color="#7E0000" stop-opacity="0"/>
</linearGradient>
<linearGradient id="paint4_linear_81_217" x1="812.866" y1="-20.0266" x2="-97.1613" y2="647.543" gradientUnits="userSpaceOnUse">
<stop stop-color="#E20000"/>
<stop offset="1" stop-color="#730B0B" stop-opacity="0"/>
</linearGradient>
<linearGradient id="paint5_linear_81_217" x1="1008.38" y1="88.8585" x2="264.5" y2="838.38" gradientUnits="userSpaceOnUse">
<stop stop-color="#FF7474"/>
<stop offset="1" stop-color="#7E0000" stop-opacity="0"/>
</linearGradient>
</defs>
</svg>
