<svg width="20" height="21" viewBox="0 0 20 21" fill="none" xmlns="http://www.w3.org/2000/svg">
<path d="M10 1.5C10.4628 1.50002 10.9182 1.53516 11.3635 1.60296C11.9665 1.69479 12.3083 2.31196 12.143 2.89908L12.0684 3.16406C11.9848 3.45891 12.1574 3.76349 12.4451 3.86926C12.6198 3.93349 12.7912 4.00438 12.9591 4.08171C13.2369 4.20966 13.5736 4.11713 13.7236 3.85059L13.8582 3.6104C14.1565 3.07814 14.8349 2.88352 15.3264 3.24503C16.0623 3.78621 16.7127 4.43671 17.2539 5.17253C17.6154 5.66407 17.4208 6.34252 16.8886 6.64083L16.6484 6.77539C16.3816 6.92472 16.2887 7.26147 16.4171 7.53902C16.4561 7.62344 16.4935 7.70876 16.5293 7.79494C16.7054 8.2192 17.1601 8.47936 17.6023 8.35507L17.7328 8.3184C18.2472 8.17382 18.7869 8.47323 18.8753 9.00018C18.9573 9.48869 19 9.98998 19 10.5C19 11.0098 18.9573 11.5107 18.8754 11.9989C18.7869 12.5257 18.2471 12.825 17.7329 12.6802L17.6035 12.6437C17.1607 12.519 16.7053 12.7796 16.5292 13.2045C16.4936 13.2903 16.4564 13.3752 16.4176 13.4592C16.2894 13.7369 16.3819 14.0736 16.6484 14.2236L16.8886 14.3582C17.4209 14.6565 17.6155 15.3349 17.254 15.8265C16.7128 16.5624 16.0624 17.2128 15.3265 17.754C14.8349 18.1155 14.1565 17.9209 13.8582 17.3886L13.7236 17.1484C13.5736 16.8819 13.2369 16.7894 12.9592 16.9176C12.8752 16.9564 12.7903 16.9936 12.7045 17.0292C12.2796 17.2053 12.019 17.6607 12.1437 18.1035L12.1802 18.2329C12.325 18.7471 12.0257 19.2869 11.4989 19.3754C11.0107 19.4573 10.5098 19.5 10 19.5C9.48998 19.5 8.98869 19.4573 8.50018 19.3753C7.97323 19.2869 7.67382 18.7472 7.8184 18.2328L7.85507 18.1023C7.97936 17.6601 7.7192 17.2054 7.29494 17.0293C7.20876 16.9935 7.12344 16.9561 7.03902 16.9171C6.76147 16.7887 6.42472 16.8816 6.27539 17.1484L6.14083 17.3886C5.84252 17.9208 5.16407 18.1154 4.67253 17.7539C3.93671 17.2127 3.28621 16.5623 2.74503 15.8264C2.38352 15.3349 2.57814 14.6565 3.1104 14.3582L3.35059 14.2236C3.61713 14.0736 3.70966 13.7369 3.58171 13.4591C3.50438 13.2912 3.43349 13.1198 3.36926 12.9451C3.26349 12.6574 2.95891 12.4848 2.66406 12.5684L2.39908 12.643C1.81196 12.8083 1.19479 12.4665 1.10296 11.8635C1.03516 11.4182 1.00002 10.9628 1 10.5C1.00002 10.0369 1.03515 9.58109 1.10299 9.1355C1.19479 8.53251 1.81191 8.19068 2.39901 8.35602L2.66406 8.43066C2.95909 8.51372 3.26349 8.34091 3.36953 8.05335C3.43379 7.87908 3.50471 7.70805 3.58202 7.54056C3.71034 7.26253 3.61758 6.92534 3.35059 6.77539L3.11042 6.6408C2.57815 6.3425 2.38354 5.66409 2.74504 5.17255C3.28623 4.4367 3.9367 3.78623 4.67255 3.24504C5.16409 2.88354 5.8425 3.07815 6.1408 3.61042L6.27539 3.85059C6.42534 4.11758 6.76253 4.21034 7.04056 4.08202C7.20805 4.00471 7.37908 3.93379 7.55335 3.86953C7.84091 3.76349 8.01372 3.45909 7.93066 3.16406L7.85602 2.89901C7.69068 2.31191 8.03251 1.69479 8.6355 1.60299C9.08109 1.53515 9.53691 1.50002 10 1.5ZM10 6.19238C7.62176 6.19259 5.6926 8.12176 5.69238 10.5C5.69259 12.8782 7.62175 14.8064 10 14.8066C12.3782 14.8064 14.3064 12.8782 14.3066 10.5C14.3064 8.12176 12.3782 6.19259 10 6.19238Z" fill="#FFFE45"/>
</svg>
