<svg width="22" height="22" viewBox="0 0 22 22" fill="none" xmlns="http://www.w3.org/2000/svg">
<g clip-path="url(#clip0_219_582)">
<g clip-path="url(#clip1_219_582)">
<path d="M10.3423 -0.426853L1.2678 8.64768C0.554799 9.36068 0.554799 10.5274 1.2678 11.2404L10.3423 20.3149C11.0553 21.0279 12.2221 21.0279 12.9351 20.3149L22.0096 11.2404C22.7226 10.5274 22.7226 9.36068 22.0096 8.64768L12.9351 -0.426853C12.2221 -1.13985 11.0553 -1.13985 10.3423 -0.426853ZM12.611 16.7499C12.073 17.2879 11.2044 17.2879 10.6664 16.7499C10.1284 16.212 10.1284 15.3434 10.6664 14.8054C11.2044 14.2674 12.073 14.2674 12.611 14.8054C13.149 15.3434 13.149 16.212 12.611 16.7499ZM6.77734 10.9163C6.23935 11.4543 5.37078 11.4543 4.83279 10.9163C4.2948 10.3783 4.2948 9.50976 4.83279 8.97177C5.37078 8.43378 6.23935 8.43378 6.77734 8.97177C7.31533 9.50976 7.31533 10.3783 6.77734 10.9163ZM12.611 10.9163C12.073 11.4543 11.2044 11.4543 10.6664 10.9163C10.1284 10.3783 10.1284 9.50976 10.6664 8.97177C11.2044 8.43378 12.073 8.43378 12.611 8.97177C13.149 9.50976 13.149 10.3783 12.611 10.9163ZM18.4446 10.9163C17.9066 11.4543 17.038 11.4543 16.5001 10.9163C15.9621 10.3783 15.9621 9.50976 16.5001 8.97177C17.038 8.43378 17.9066 8.43378 18.4446 8.97177C18.9826 9.50976 18.9826 10.3783 18.4446 10.9163ZM12.611 5.08269C12.073 5.62068 11.2044 5.62068 10.6664 5.08269C10.1284 4.5447 10.1284 3.67613 10.6664 3.13814C11.2044 2.60015 12.073 2.60015 12.611 3.13814C13.149 3.67613 13.149 4.5447 12.611 5.08269Z" fill="#8C8C8C"/>
</g>
</g>
<defs>
<clipPath id="clip0_219_582">
<rect width="22" height="22" fill="white"/>
</clipPath>
<clipPath id="clip1_219_582">
<rect x="-0.0266113" y="9.94141" width="16.5" height="16.5" rx="5.5" transform="rotate(-45 -0.0266113 9.94141)" fill="white"/>
</clipPath>
</defs>
</svg>
