<svg width="375" height="357" viewBox="0 0 375 357" fill="none" xmlns="http://www.w3.org/2000/svg">
<g style="mix-blend-mode:overlay">
<g clip-path="url(#paint0_diamond_81_435_clip_path)" data-figma-skip-parse="true"><g transform="matrix(0.142401 0.246646 0.246641 -0.142398 124.041 -32.973)"><rect x="0" y="0" width="1003.51" height="1003.51" fill="url(#paint0_diamond_81_435)" opacity="1" shape-rendering="crispEdges"/><rect x="0" y="0" width="1003.51" height="1003.51" transform="scale(1 -1)" fill="url(#paint0_diamond_81_435)" opacity="1" shape-rendering="crispEdges"/><rect x="0" y="0" width="1003.51" height="1003.51" transform="scale(-1 1)" fill="url(#paint0_diamond_81_435)" opacity="1" shape-rendering="crispEdges"/><rect x="0" y="0" width="1003.51" height="1003.51" transform="scale(-1)" fill="url(#paint0_diamond_81_435)" opacity="1" shape-rendering="crispEdges"/></g></g><path d="M299.166 -230.361L299.295 -230.844L299.495 -230.791L299.599 -230.611L299.166 -230.361ZM71.066 -291.48L71.1954 -291.963L71.1954 -291.963L71.066 -291.48ZM-73.5435 -207.99L-74.0272 -208.117L-74.0264 -208.119L-73.5435 -207.99ZM-73.5444 -207.986L-73.0607 -207.86L-73.0615 -207.857L-73.5444 -207.986ZM177.017 225.532L177.147 225.049L177.147 225.049L177.017 225.532ZM321.628 142.045L322.111 142.174L322.111 142.174L321.628 142.045ZM299.167 -230.359L299.038 -229.876L298.838 -229.929L298.734 -230.109L299.167 -230.359ZM299.166 -230.361L299.036 -229.878C286.427 -233.257 275.466 -241.667 268.939 -252.973L269.372 -253.223L269.805 -253.473C276.2 -242.396 286.942 -234.154 299.295 -230.844L299.166 -230.361ZM269.372 -253.223L268.939 -252.973C236.605 -308.976 164.332 -328.342 108.329 -296.008L108.079 -296.441L107.829 -296.874C164.311 -329.484 237.195 -309.955 269.805 -253.473L269.372 -253.223ZM108.079 -296.441L108.329 -296.008L108.324 -296.005L108.074 -296.438L107.824 -296.871L107.829 -296.874L108.079 -296.441ZM108.074 -296.438L108.324 -296.005C97.1259 -289.54 83.432 -287.647 70.9365 -290.997L71.066 -291.48L71.1954 -291.963C83.4299 -288.683 96.8513 -290.536 107.824 -296.871L108.074 -296.438ZM71.066 -291.48L70.9365 -290.997C8.47719 -307.733 -56.3259 -270.322 -73.0605 -207.861L-73.5435 -207.99L-74.0264 -208.119C-57.1489 -271.115 8.20258 -308.842 71.1954 -291.963L71.066 -291.48ZM-73.5435 -207.99L-73.0597 -207.864L-73.0607 -207.86L-73.5444 -207.986L-74.0282 -208.113L-74.0272 -208.117L-73.5435 -207.99ZM-73.5444 -207.986L-73.0615 -207.857C-76.4025 -195.388 -84.7175 -184.553 -95.8983 -178.097L-96.1483 -178.53L-96.3983 -178.964C-85.4471 -185.286 -77.2998 -195.903 -74.0274 -208.116L-73.5444 -207.986ZM-96.1483 -178.53L-95.8983 -178.097C-151.9 -145.765 -171.267 -73.4913 -138.934 -17.4876L-139.367 -17.2376L-139.8 -16.9876C-172.41 -73.4696 -152.878 -146.355 -96.3983 -178.964L-96.1483 -178.53ZM-139.367 -17.2376L-138.934 -17.4876C-132.465 -6.28302 -130.745 7.43521 -134.092 19.9284L-134.575 19.799L-135.058 19.6696C-131.778 7.42798 -133.466 -6.01679 -139.8 -16.9876L-139.367 -17.2376ZM-134.575 19.799L-134.092 19.9284C-150.829 82.3916 -113.416 147.193 -50.9565 163.929L-51.086 164.412L-51.2153 164.895C-114.208 148.016 -151.938 82.6662 -135.058 19.6696L-134.575 19.799ZM-51.086 164.412L-50.9565 163.929C-38.3471 167.308 -27.3865 175.718 -20.8589 187.024L-21.292 187.274L-21.725 187.524C-28.1199 176.447 -38.8621 168.205 -51.2153 164.895L-51.086 164.412ZM-21.292 187.274L-20.8589 187.024C11.4748 243.027 83.7521 262.39 139.751 230.059L140.001 230.492L140.251 230.925C83.7738 263.532 10.885 244.006 -21.725 187.524L-21.292 187.274ZM140.001 230.492L139.751 230.059C150.951 223.592 164.65 221.703 177.147 225.049L177.017 225.532L176.888 226.015C164.652 222.739 151.226 224.589 140.251 230.925L140.001 230.492ZM177.017 225.532L177.147 225.049C239.608 241.788 304.407 204.376 321.145 141.915L321.628 142.045L322.111 142.174C305.23 205.168 239.882 242.897 176.888 226.015L177.017 225.532ZM321.628 142.045L321.145 141.915C324.486 129.44 332.797 118.604 343.98 112.147L344.23 112.58L344.48 113.013C333.527 119.337 325.383 129.955 322.111 142.174L321.628 142.045ZM344.23 112.58L343.98 112.147C399.982 79.8147 419.349 7.54091 387.017 -48.4604L387.45 -48.7104L387.883 -48.9604C420.492 7.51925 400.96 80.4046 344.48 113.013L344.23 112.58ZM387.45 -48.7104L387.017 -48.4604C380.548 -59.6649 378.828 -73.3832 382.176 -85.8764L382.659 -85.747L383.142 -85.6176C379.861 -73.376 381.549 -59.9312 387.883 -48.9604L387.45 -48.7104ZM382.659 -85.747L382.176 -85.8764C398.912 -148.336 361.501 -213.139 299.038 -229.876L299.167 -230.359L299.296 -230.842C362.293 -213.962 400.02 -148.61 383.142 -85.6176L382.659 -85.747ZM299.167 -230.359L298.734 -230.109L298.733 -230.111L299.166 -230.361L299.599 -230.611L299.6 -230.609L299.167 -230.359Z" data-figma-gradient-fill="{&#34;type&#34;:&#34;GRADIENT_DIAMOND&#34;,&#34;stops&#34;:[{&#34;color&#34;:{&#34;r&#34;:1.0,&#34;g&#34;:1.0,&#34;b&#34;:1.0,&#34;a&#34;:1.0},&#34;position&#34;:0.0},{&#34;color&#34;:{&#34;r&#34;:1.0,&#34;g&#34;:1.0,&#34;b&#34;:1.0,&#34;a&#34;:1.0},&#34;position&#34;:1.0}],&#34;stopsVar&#34;:[{&#34;color&#34;:{&#34;r&#34;:1.0,&#34;g&#34;:1.0,&#34;b&#34;:1.0,&#34;a&#34;:1.0},&#34;position&#34;:0.0},{&#34;color&#34;:{&#34;r&#34;:1.0,&#34;g&#34;:1.0,&#34;b&#34;:1.0,&#34;a&#34;:1.0},&#34;position&#34;:1.0}],&#34;transform&#34;:{&#34;m00&#34;:284.80172729492188,&#34;m01&#34;:493.28121948242188,&#34;m02&#34;:-265.0,&#34;m10&#34;:493.29104614257812,&#34;m11&#34;:-284.79605102539062,&#34;m12&#34;:-137.22055053710938},&#34;opacity&#34;:1.0,&#34;blendMode&#34;:&#34;NORMAL&#34;,&#34;visible&#34;:true}"/>
</g>
<mask id="mask0_81_435" style="mask-type:alpha" maskUnits="userSpaceOnUse" x="-156" y="-314" width="560" height="560">
<path fill-rule="evenodd" clip-rule="evenodd" d="M299.478 -231.345C286.997 -234.689 276.145 -243.015 269.684 -254.206C237.212 -310.449 164.634 -329.896 108.391 -297.424L108.386 -297.422C97.3011 -291.022 83.7434 -289.149 71.3785 -292.464C8.65238 -309.271 -56.4249 -271.702 -73.2309 -208.974L-73.2319 -208.97C-76.5386 -196.629 -84.7698 -185.903 -95.8358 -179.514C-152.076 -147.043 -171.526 -74.4639 -139.054 -18.221C-132.653 -7.13333 -130.949 6.44819 -134.263 18.8156C-151.071 81.5455 -113.5 146.621 -50.7734 163.429C-38.2921 166.773 -27.4407 175.099 -20.9794 186.29C11.4924 242.533 84.0754 261.978 140.313 229.509C151.401 223.107 164.964 221.238 177.33 224.549C240.057 241.359 305.131 203.789 321.941 141.061C325.247 128.714 333.474 117.987 344.543 111.597C400.783 79.1262 420.233 6.54667 387.762 -49.6938C381.361 -60.7814 379.657 -74.363 382.971 -86.7304C399.779 -149.456 362.209 -214.534 299.479 -231.342L299.478 -231.345Z" fill="#D9D9D9"/>
<g clip-path="url(#paint1_diamond_81_435_clip_path)" data-figma-skip-parse="true"><g transform="matrix(0.142401 0.246646 0.246641 -0.142398 124.354 -33.9564)"><rect x="0" y="0" width="1003.51" height="1003.51" fill="url(#paint1_diamond_81_435)" opacity="1" shape-rendering="crispEdges"/><rect x="0" y="0" width="1003.51" height="1003.51" transform="scale(1 -1)" fill="url(#paint1_diamond_81_435)" opacity="1" shape-rendering="crispEdges"/><rect x="0" y="0" width="1003.51" height="1003.51" transform="scale(-1 1)" fill="url(#paint1_diamond_81_435)" opacity="1" shape-rendering="crispEdges"/><rect x="0" y="0" width="1003.51" height="1003.51" transform="scale(-1)" fill="url(#paint1_diamond_81_435)" opacity="1" shape-rendering="crispEdges"/></g></g><path d="M299.478 -231.345L299.607 -231.828L299.808 -231.774L299.911 -231.595L299.478 -231.345ZM71.3785 -292.464L71.5079 -292.947L71.5079 -292.947L71.3785 -292.464ZM-73.2309 -208.974L-73.7145 -209.101L-73.7139 -209.103L-73.2309 -208.974ZM-73.2319 -208.97L-72.7484 -208.842L-72.749 -208.84L-73.2319 -208.97ZM-134.263 18.8156L-134.746 18.6862L-134.263 18.8156ZM-50.7734 163.429L-50.644 162.946L-50.7734 163.429ZM177.33 224.549L177.459 224.066L177.459 224.066L177.33 224.549ZM321.941 141.061L322.424 141.19L322.424 141.191L321.941 141.061ZM382.971 -86.7304L382.488 -86.8598L382.971 -86.7304ZM299.479 -231.342L299.35 -230.859L299.15 -230.913L299.046 -231.092L299.479 -231.342ZM299.478 -231.345L299.349 -230.862C286.739 -234.24 275.779 -242.65 269.251 -253.956L269.684 -254.206L270.117 -254.456C276.512 -243.38 287.254 -235.138 299.607 -231.828L299.478 -231.345ZM269.684 -254.206L269.251 -253.956C236.917 -309.96 164.645 -329.325 108.641 -296.991L108.391 -297.424L108.141 -297.857C164.623 -330.467 237.507 -310.938 270.117 -254.456L269.684 -254.206ZM108.391 -297.424L108.641 -296.991L108.636 -296.989L108.386 -297.422L108.136 -297.855L108.141 -297.857L108.391 -297.424ZM108.386 -297.422L108.636 -296.989C97.4384 -290.523 83.7445 -288.631 71.249 -291.981L71.3785 -292.464L71.5079 -292.947C83.7424 -289.666 97.1638 -291.52 108.136 -297.855L108.386 -297.422ZM71.3785 -292.464L71.249 -291.981C8.78968 -308.717 -56.0134 -271.306 -72.748 -208.844L-73.2309 -208.974L-73.7139 -209.103C-56.8364 -272.098 8.51508 -309.826 71.5079 -292.947L71.3785 -292.464ZM-73.2309 -208.974L-72.7474 -208.846L-72.7484 -208.842L-73.2319 -208.97L-73.7155 -209.097L-73.7145 -209.101L-73.2309 -208.974ZM-73.2319 -208.97L-72.749 -208.84C-76.09 -196.371 -84.405 -185.536 -95.5858 -179.081L-95.8358 -179.514L-96.0858 -179.947C-85.1346 -186.27 -76.9873 -196.886 -73.7149 -209.099L-73.2319 -208.97ZM-95.8358 -179.514L-95.5858 -179.081C-151.587 -146.749 -170.955 -74.4747 -138.621 -18.471L-139.054 -18.221L-139.487 -17.971C-172.097 -74.453 -152.565 -147.338 -96.0858 -179.947L-95.8358 -179.514ZM-139.054 -18.221L-138.621 -18.471C-132.152 -7.26645 -130.432 6.45183 -133.78 18.945L-134.263 18.8156L-134.746 18.6862C-131.466 6.4446 -133.153 -7.00023 -139.487 -17.971L-139.054 -18.221ZM-134.263 18.8156L-133.78 18.945C-150.517 81.4082 -113.103 146.21 -50.644 162.946L-50.7734 163.429L-50.9028 163.912C-113.896 147.033 -151.626 81.6828 -134.746 18.6862L-134.263 18.8156ZM-50.7734 163.429L-50.644 162.946C-38.0346 166.325 -27.074 174.734 -20.5464 186.04L-20.9794 186.29L-21.4124 186.54C-27.8074 175.464 -38.5496 167.222 -50.9028 163.912L-50.7734 163.429ZM-20.9794 186.29L-20.5464 186.04C11.7874 242.044 84.0646 261.407 140.063 229.076L140.313 229.509L140.563 229.942C84.0863 262.549 11.1975 243.022 -21.4124 186.54L-20.9794 186.29ZM140.313 229.509L140.063 229.076C151.264 222.609 164.963 220.72 177.459 224.066L177.33 224.549L177.201 225.032C164.965 221.755 151.538 223.605 140.563 229.942L140.313 229.509ZM177.33 224.549L177.459 224.066C239.92 240.804 304.719 203.392 321.458 140.932L321.941 141.061L322.424 141.191C305.542 204.185 240.195 241.913 177.201 225.032L177.33 224.549ZM321.941 141.061L321.458 140.932C324.798 128.457 333.109 117.62 344.293 111.164L344.543 111.597L344.793 112.03C333.839 118.354 325.696 128.972 322.424 141.19L321.941 141.061ZM344.543 111.597L344.293 111.164C400.294 78.8313 419.662 6.55751 387.329 -49.4438L387.762 -49.6938L388.195 -49.9438C420.804 6.53585 401.272 79.4212 344.793 112.03L344.543 111.597ZM387.762 -49.6938L387.329 -49.4438C380.861 -60.6483 379.141 -74.3666 382.488 -86.8598L382.971 -86.7304L383.454 -86.601C380.174 -74.3594 381.862 -60.9146 388.195 -49.9438L387.762 -49.6938ZM382.971 -86.7304L382.488 -86.8598C399.224 -149.319 361.813 -214.122 299.35 -230.859L299.479 -231.342L299.609 -231.825C362.605 -214.945 400.333 -149.594 383.454 -86.601L382.971 -86.7304ZM299.479 -231.342L299.046 -231.092L299.045 -231.095L299.478 -231.345L299.911 -231.595L299.912 -231.592L299.479 -231.342Z" data-figma-gradient-fill="{&#34;type&#34;:&#34;GRADIENT_DIAMOND&#34;,&#34;stops&#34;:[{&#34;color&#34;:{&#34;r&#34;:1.0,&#34;g&#34;:1.0,&#34;b&#34;:1.0,&#34;a&#34;:1.0},&#34;position&#34;:0.0},{&#34;color&#34;:{&#34;r&#34;:1.0,&#34;g&#34;:1.0,&#34;b&#34;:1.0,&#34;a&#34;:1.0},&#34;position&#34;:1.0}],&#34;stopsVar&#34;:[{&#34;color&#34;:{&#34;r&#34;:1.0,&#34;g&#34;:1.0,&#34;b&#34;:1.0,&#34;a&#34;:1.0},&#34;position&#34;:0.0},{&#34;color&#34;:{&#34;r&#34;:1.0,&#34;g&#34;:1.0,&#34;b&#34;:1.0,&#34;a&#34;:1.0},&#34;position&#34;:1.0}],&#34;transform&#34;:{&#34;m00&#34;:284.80172729492188,&#34;m01&#34;:493.28121948242188,&#34;m02&#34;:-264.68750,&#34;m10&#34;:493.29104614257812,&#34;m11&#34;:-284.79605102539062,&#34;m12&#34;:-138.20394897460938},&#34;opacity&#34;:1.0,&#34;blendMode&#34;:&#34;NORMAL&#34;,&#34;visible&#34;:true}"/>
</mask>
<g mask="url(#mask0_81_435)">
<g opacity="0.66" filter="url(#filter0_f_81_435)">
<path d="M-627 133.512L328.854 16.0005H546.409L97.2199 405H-627V133.512Z" fill="url(#paint2_linear_81_435)"/>
</g>
<g style="mix-blend-mode:color-dodge" opacity="0.92" filter="url(#filter1_f_81_435)">
<path d="M-516.149 181.481L507.548 89.8549L1035.87 170.52L259.474 393.167H-516.149V181.481Z" fill="url(#paint3_linear_81_435)"/>
</g>
<g style="mix-blend-mode:overlay">
<path d="M257.381 67.5382L310.614 98.2721C315.08 100.851 318.538 103.541 321.053 106.364C323.573 109.193 325.207 112.093 325.95 115.012C326.703 117.968 326.595 120.981 325.632 124.039C324.667 127.106 322.913 130.205 320.332 133.32L312.328 142.845C310.33 145.166 308.193 147.083 305.894 148.588C303.566 150.082 301.122 151.189 298.528 151.865C295.903 152.53 293.231 152.792 290.479 152.603C287.704 152.4 284.878 151.736 281.966 150.555L281.474 151.416C283.978 153.333 286.03 155.3 287.646 157.354L287.649 157.358C289.262 159.368 290.27 161.546 290.666 163.819L290.667 163.823C291.083 166.095 290.81 168.598 289.823 171.382C288.843 174.148 286.924 177.216 284.071 180.576L284.068 180.579L276.986 189.053C273.626 193.023 270.125 195.94 266.464 197.809L266.461 197.81C262.811 199.698 259.077 200.717 255.256 200.874L255.25 200.874C251.428 201.068 247.511 200.496 243.49 199.209C239.47 197.894 235.451 196.079 231.387 193.732L176.965 162.312C172.992 160.018 169.565 157.566 166.707 154.912L166.704 154.909L166.18 154.416C163.605 151.936 161.799 149.251 160.746 146.415C159.618 143.368 159.45 140.132 160.225 136.644L160.226 136.643L160.376 136.013C161.199 132.856 163.093 129.468 166.074 125.885L166.076 125.883L166.394 125.495L173.434 117.095L173.436 117.092C176.225 113.732 179.014 111.183 181.798 109.431L181.805 109.426C181.808 109.424 181.811 109.424 181.814 109.423C181.834 109.411 181.855 109.398 181.876 109.382L181.904 109.365L181.904 109.364C184.693 107.66 187.443 106.539 190.189 106.036L190.19 106.037L190.196 106.036C192.953 105.493 195.779 105.539 198.647 106.073C201.557 106.625 204.5 107.509 207.492 108.701L207.988 107.845C205.704 106.028 203.984 104.071 202.758 101.975C201.612 100.016 200.987 98.0127 200.826 95.9569L200.8 95.5449C200.72 93.7172 200.962 91.8582 201.567 89.9557L201.57 89.9454L201.573 89.9347L201.657 89.6413C201.686 89.5433 201.717 89.4452 201.75 89.3463L201.956 88.7383C202.824 86.4381 204.271 84.1418 206.265 81.8238L206.269 81.8192L213.815 72.8156L213.816 72.8161L213.82 72.8107L214.255 72.2746C216.808 69.2079 219.659 66.7618 222.806 64.9296C225.949 63.0998 229.353 61.9504 233.022 61.4809C236.688 61.0118 240.562 61.2775 244.662 62.2653L244.663 62.2658C248.479 63.1779 252.458 64.7849 256.56 67.072L257.381 67.5382ZM217.286 129.074C216.29 128.499 215.269 128.086 214.265 127.841L213.835 127.747L213.827 127.745C212.667 127.536 211.538 127.479 210.467 127.596C209.39 127.714 208.359 128.033 207.392 128.591C207.082 128.763 206.789 128.974 206.523 129.163L206.516 129.168C205.922 129.608 205.371 130.16 204.865 130.752L204.864 130.754L200.159 136.32L200.158 136.321C199.636 136.941 199.185 137.598 198.887 138.295L198.887 138.294C198.738 138.614 198.613 138.947 198.514 139.293C198.209 140.361 198.214 141.377 198.479 142.365C198.727 143.368 199.216 144.291 199.895 145.181L199.9 145.187C200.59 146.064 201.573 146.86 202.8 147.568L239.375 168.685C240.604 169.394 241.847 169.883 243.056 170.111L243.056 170.112L243.063 170.113C244.284 170.326 245.472 170.385 246.678 170.251L246.678 170.252C247.857 170.128 248.969 169.788 250.009 169.165C251.024 168.556 251.921 167.809 252.724 166.879L252.726 166.876L257.454 161.324L257.46 161.318L257.465 161.311C258.184 160.408 258.693 159.48 258.942 158.515L258.943 158.515C259.23 157.539 259.247 156.601 259.028 155.701C258.811 154.804 258.353 153.927 257.679 153.07L257.668 153.057L257.386 152.74C256.705 152.009 255.848 151.338 254.812 150.74L217.286 129.074ZM250.947 93.5772C249.855 92.9469 248.799 92.4866 247.738 92.2024L247.283 92.0912C246.092 91.8025 244.93 91.7324 243.836 91.8759C242.744 92.0194 241.671 92.3714 240.67 92.893L240.664 92.8961C239.632 93.4516 238.766 94.1977 237.987 95.1432L233.695 100.329C232.92 101.211 232.393 102.111 232.146 103.028L232.143 103.039C231.912 103.978 231.912 104.884 232.139 105.812C232.367 106.749 232.851 107.643 233.543 108.479L233.548 108.486L233.555 108.493C234.284 109.315 235.205 110.078 236.344 110.736L269.159 129.681C270.343 130.365 271.534 130.822 272.656 131.07L272.664 131.072C273.818 131.308 274.954 131.364 276.045 131.221C277.156 131.092 278.144 130.785 279.079 130.277C280.005 129.79 280.838 129.097 281.626 128.242L281.636 128.231L281.645 128.222L285.945 123.025L285.953 123.015C286.703 122.059 287.226 121.106 287.5 120.093L287.5 120.092C287.784 119.117 287.805 118.117 287.55 117.164C287.296 116.217 286.79 115.311 286.056 114.483L286.057 114.483C285.311 113.614 284.37 112.874 283.238 112.22L250.947 93.5772Z" stroke="white"/>
<path d="M170.47 172.889L223.703 203.623C228.169 206.201 231.627 208.891 234.142 211.715C236.662 214.543 238.296 217.443 239.039 220.362C239.792 223.318 239.684 226.331 238.721 229.389C237.756 232.457 236.003 235.555 233.421 238.67L225.417 248.195C223.419 250.517 221.282 252.434 218.983 253.938C216.655 255.432 214.211 256.54 211.617 257.216C208.992 257.88 206.32 258.142 203.568 257.953C200.793 257.751 197.967 257.087 195.055 255.906L194.563 256.766C197.067 258.683 199.119 260.651 200.735 262.705L200.738 262.709C202.351 264.719 203.359 266.896 203.755 269.169L203.756 269.173C204.172 271.445 203.899 273.948 202.912 276.732C201.932 279.499 200.013 282.566 197.16 285.926L197.157 285.929L190.076 294.404C186.715 298.374 183.214 301.29 179.553 303.159L179.55 303.16C175.9 305.049 172.166 306.068 168.345 306.225L168.339 306.225C164.517 306.419 160.6 305.846 156.579 304.559C152.559 303.244 148.54 301.429 144.476 299.082L90.054 267.662C86.0813 265.368 82.6542 262.916 79.7956 260.262L79.7935 260.26L79.2688 259.766C76.6937 257.286 74.8882 254.601 73.8351 251.766C72.7075 248.718 72.5393 245.483 73.3138 241.995L73.3148 241.993L73.465 241.364C74.288 238.207 76.1821 234.818 79.1634 231.236L79.1649 231.233L79.4835 230.846L86.5233 222.445L86.5248 222.443C89.3143 219.082 92.1027 216.534 94.8866 214.782L94.8944 214.776C94.897 214.775 94.9003 214.775 94.9029 214.773C94.9234 214.762 94.9441 214.748 94.9649 214.732L94.9926 214.715L94.9931 214.715C97.7819 213.011 100.532 211.889 103.278 211.387L103.279 211.387L103.285 211.386C106.042 210.843 108.868 210.889 111.736 211.424C114.646 211.975 117.589 212.859 120.581 214.052L121.077 213.196C118.793 211.378 117.073 209.421 115.847 207.325C114.701 205.367 114.076 203.363 113.915 201.307L113.889 200.895C113.809 199.068 114.051 197.209 114.656 195.306L114.66 195.296L114.662 195.285L114.746 194.992C114.775 194.894 114.806 194.796 114.839 194.697L115.045 194.089C115.913 191.788 117.36 189.492 119.354 187.174L119.358 187.17L126.904 178.166L126.905 178.167L126.909 178.161L127.344 177.625C129.897 174.558 132.748 172.112 135.895 170.28C139.038 168.45 142.442 167.301 146.111 166.831C149.777 166.362 153.651 166.628 157.751 167.616L157.752 167.616C161.569 168.528 165.547 170.135 169.649 172.422L170.47 172.889ZM130.375 234.424C129.379 233.849 128.358 233.436 127.354 233.192L126.924 233.097L126.916 233.096C125.756 232.886 124.627 232.829 123.556 232.947C122.479 233.065 121.448 233.383 120.481 233.942C120.171 234.113 119.878 234.324 119.613 234.514L119.605 234.519C119.011 234.958 118.46 235.511 117.954 236.103L117.953 236.104L113.248 241.67L113.248 241.671C112.725 242.291 112.274 242.948 111.976 243.645L111.976 243.645C111.827 243.964 111.703 244.297 111.603 244.644C111.298 245.712 111.304 246.728 111.568 247.715C111.816 248.718 112.305 249.641 112.984 250.531L112.989 250.537C113.679 251.415 114.662 252.21 115.889 252.919L152.464 274.035C153.693 274.745 154.936 275.233 156.145 275.462L156.145 275.462L156.152 275.463C157.373 275.676 158.561 275.735 159.767 275.602L159.767 275.603C160.946 275.478 162.058 275.139 163.098 274.515C164.113 273.906 165.01 273.16 165.813 272.229L165.815 272.226L170.543 266.675L170.549 266.668L170.554 266.662C171.273 265.758 171.782 264.83 172.031 263.865L172.032 263.866C172.319 262.889 172.336 261.951 172.117 261.051C171.9 260.155 171.442 259.277 170.768 258.42L170.757 258.407L170.476 258.09C169.794 257.359 168.937 256.688 167.901 256.09L130.375 234.424ZM164.036 198.928C162.944 198.297 161.888 197.837 160.827 197.553L160.372 197.442C159.181 197.153 158.019 197.083 156.925 197.226C155.833 197.37 154.76 197.722 153.759 198.243L153.753 198.247C152.721 198.802 151.855 199.548 151.076 200.494L146.785 205.679C146.009 206.561 145.482 207.461 145.235 208.378L145.232 208.389C145.001 209.328 145.001 210.235 145.228 211.163C145.457 212.1 145.94 212.993 146.632 213.83L146.637 213.836L146.644 213.843C147.373 214.665 148.294 215.429 149.433 216.086L182.248 235.032C183.432 235.715 184.623 236.172 185.745 236.42L185.753 236.423C186.907 236.659 188.043 236.714 189.134 236.571C190.245 236.442 191.233 236.135 192.168 235.627C193.094 235.141 193.927 234.447 194.715 233.592L194.725 233.582L194.734 233.572L199.034 228.376L199.042 228.365C199.792 227.409 200.315 226.456 200.589 225.443L200.589 225.443C200.873 224.467 200.894 223.467 200.639 222.514C200.385 221.568 199.879 220.661 199.145 219.833L199.146 219.833C198.4 218.964 197.459 218.224 196.327 217.571L164.036 198.928Z" stroke="white"/>
<path d="M328.017 193.467L381.249 224.2C385.715 226.779 389.174 229.469 391.689 232.292C394.209 235.121 395.843 238.021 396.585 240.94C397.338 243.896 397.23 246.909 396.268 249.967C395.302 253.035 393.549 256.133 390.968 259.248L382.963 268.773C380.966 271.095 378.829 273.012 376.53 274.516C374.202 276.01 371.758 277.118 369.164 277.794C366.538 278.458 363.867 278.72 361.115 278.531C358.339 278.329 355.513 277.665 352.602 276.484L352.109 277.344C354.614 279.261 356.666 281.229 358.282 283.282L358.285 283.287C359.898 285.297 360.905 287.474 361.301 289.747L361.303 289.751C361.719 292.023 361.445 294.526 360.459 297.31C359.479 300.077 357.56 303.144 354.706 306.504L354.704 306.507L347.622 314.982C344.261 318.952 340.761 321.868 337.099 323.737L337.097 323.738C333.447 325.626 329.713 326.646 325.891 326.803L325.885 326.803C322.064 326.997 318.146 326.424 314.125 325.137C310.106 323.822 306.087 322.007 302.022 319.66L247.601 288.24C243.628 285.946 240.201 283.494 237.342 280.84L237.34 280.838L236.815 280.344C234.24 277.864 232.435 275.179 231.382 272.343C230.254 269.296 230.086 266.061 230.86 262.573L230.861 262.571L231.012 261.942C231.834 258.785 233.729 255.396 236.71 251.814L236.711 251.811L237.03 251.424L244.07 243.023L244.071 243.021C246.861 239.66 249.649 237.112 252.433 235.36L252.441 235.354C252.443 235.353 252.447 235.352 252.449 235.351C252.47 235.34 252.491 235.326 252.511 235.31L252.539 235.293L252.54 235.293C255.328 233.589 258.078 232.467 260.824 231.965L260.825 231.965L260.831 231.964C263.589 231.421 266.414 231.467 269.283 232.002C272.193 232.553 275.136 233.437 278.127 234.629L278.624 233.774C276.339 231.956 274.62 229.999 273.393 227.903C272.247 225.945 271.622 223.941 271.462 221.885L271.436 221.473C271.355 219.646 271.597 217.787 272.202 215.884L272.206 215.874L272.209 215.863L272.293 215.57C272.322 215.472 272.353 215.374 272.385 215.275L272.592 214.667C273.46 212.366 274.906 210.07 276.901 207.752L276.904 207.748L284.45 198.744L284.451 198.744L284.456 198.739L284.89 198.203C287.444 195.136 290.295 192.69 293.442 190.858C296.585 189.028 299.989 187.879 303.658 187.409C307.323 186.94 311.198 187.206 315.298 188.194L315.299 188.194C319.115 189.106 323.094 190.713 327.196 193L328.017 193.467ZM287.921 255.002C286.926 254.427 285.905 254.014 284.9 253.77L284.471 253.675L284.463 253.674C283.303 253.464 282.174 253.407 281.103 253.525C280.025 253.643 278.995 253.961 278.027 254.52C277.718 254.691 277.425 254.902 277.159 255.092L277.152 255.097C276.558 255.536 276.006 256.089 275.501 256.681L275.5 256.682L270.795 262.248L270.794 262.249C270.272 262.869 269.82 263.526 269.522 264.223L269.523 264.223C269.373 264.542 269.249 264.875 269.15 265.222C268.844 266.29 268.85 267.306 269.114 268.293C269.363 269.296 269.851 270.219 270.531 271.109L270.535 271.115C271.226 271.993 272.208 272.788 273.435 273.496L310.011 294.613C311.239 295.323 312.483 295.811 313.692 296.04L313.691 296.04L313.699 296.041C314.919 296.254 316.108 296.313 317.313 296.179L317.314 296.181C318.493 296.056 319.605 295.717 320.645 295.093C321.66 294.484 322.556 293.738 323.359 292.807L323.362 292.804L328.09 287.253L328.096 287.246L328.1 287.24C328.82 286.336 329.328 285.408 329.577 284.443L329.578 284.444C329.865 283.467 329.883 282.529 329.664 281.629C329.446 280.733 328.989 279.855 328.314 278.998L328.304 278.985L328.022 278.668C327.341 277.937 326.484 277.266 325.448 276.668L287.921 255.002ZM321.582 219.506C320.491 218.875 319.434 218.415 318.373 218.131L317.919 218.02C316.728 217.731 315.565 217.661 314.472 217.804C313.379 217.948 312.306 218.3 311.306 218.821L311.299 218.824C310.268 219.38 309.401 220.126 308.623 221.071L304.331 226.257C303.556 227.139 303.029 228.039 302.782 228.956L302.779 228.967C302.548 229.906 302.548 230.812 302.774 231.741C303.003 232.678 303.486 233.571 304.179 234.408L304.184 234.414L304.19 234.421C304.919 235.243 305.841 236.007 306.979 236.664L339.795 255.61C340.978 256.293 342.169 256.75 343.291 256.998L343.299 257.001C344.453 257.237 345.59 257.292 346.681 257.149C347.792 257.02 348.779 256.713 349.715 256.205C350.641 255.719 351.473 255.025 352.262 254.17L352.271 254.16L352.28 254.15L356.58 248.954L356.589 248.943C357.339 247.987 357.861 247.034 358.136 246.021L358.135 246.021C358.42 245.045 358.441 244.045 358.185 243.092C357.932 242.146 357.425 241.239 356.692 240.411L356.693 240.411C355.947 239.542 355.005 238.802 353.873 238.149L321.582 219.506Z" stroke="white"/>
<path d="M419.266 86.5796L472.499 117.313C476.964 119.892 480.423 122.582 482.938 125.405C485.458 128.234 487.092 131.134 487.835 134.053C488.587 137.009 488.479 140.022 487.517 143.08C486.551 146.148 484.798 149.246 482.217 152.361L474.212 161.886C472.215 164.207 470.078 166.125 467.779 167.629C465.451 169.123 463.007 170.231 460.413 170.907C457.787 171.571 455.116 171.833 452.364 171.644C449.589 171.442 446.762 170.778 443.851 169.597L443.359 170.457C445.863 172.374 447.915 174.342 449.531 176.395L449.534 176.4C451.147 178.41 452.154 180.587 452.551 182.86L452.552 182.864C452.968 185.136 452.695 187.639 451.708 190.423C450.728 193.19 448.809 196.257 445.955 199.617L445.953 199.62L438.871 208.095C435.511 212.065 432.01 214.981 428.348 216.85L428.346 216.851C424.696 218.739 420.962 219.759 417.14 219.916L417.135 219.916C413.313 220.11 409.395 219.537 405.374 218.25C401.355 216.935 397.336 215.12 393.271 212.773L338.85 181.353C334.877 179.059 331.45 176.607 328.591 173.953L328.589 173.951L328.064 173.457C325.489 170.977 323.684 168.292 322.631 165.456C321.503 162.409 321.335 159.174 322.109 155.686L322.11 155.684L322.261 155.055C323.084 151.897 324.978 148.509 327.959 144.927L327.961 144.924L328.279 144.536L335.319 136.136L335.32 136.134C338.11 132.773 340.898 130.225 343.682 128.473L343.69 128.467C343.693 128.466 343.696 128.465 343.699 128.464C343.719 128.453 343.74 128.439 343.761 128.423L343.788 128.406L343.789 128.406C346.578 126.702 349.327 125.58 352.073 125.078L352.074 125.078L352.08 125.077C354.838 124.534 357.664 124.58 360.532 125.115C363.442 125.666 366.385 126.55 369.377 127.742L369.873 126.887C367.588 125.069 365.869 123.112 364.642 121.016C363.497 119.058 362.871 117.054 362.711 114.998L362.685 114.586C362.604 112.759 362.847 110.9 363.451 108.997L363.455 108.987L363.458 108.976L363.542 108.683C363.571 108.585 363.602 108.487 363.634 108.388L363.841 107.78C364.709 105.479 366.155 103.183 368.15 100.865L368.154 100.861L375.7 91.857L375.7 91.8574L375.705 91.852L376.139 91.3159C378.693 88.2492 381.544 85.8031 384.691 83.9709C387.834 82.1411 391.238 80.9918 394.907 80.5222C398.573 80.0531 402.447 80.3188 406.547 81.3066L406.548 81.3071C410.364 82.2192 414.343 83.8262 418.445 86.1133L419.266 86.5796ZM379.17 148.115C378.175 147.54 377.154 147.127 376.149 146.883L375.72 146.788L375.712 146.787C374.552 146.577 373.423 146.52 372.352 146.638C371.275 146.756 370.244 147.074 369.276 147.633C368.967 147.804 368.674 148.015 368.408 148.205L368.401 148.21C367.807 148.649 367.255 149.202 366.75 149.794L366.749 149.795L362.044 155.361L362.043 155.362C361.521 155.982 361.07 156.639 360.771 157.336L360.772 157.336C360.622 157.655 360.498 157.988 360.399 158.335C360.094 159.403 360.099 160.419 360.363 161.406C360.612 162.409 361.1 163.332 361.78 164.222L361.784 164.228C362.475 165.106 363.458 165.901 364.684 166.609L401.26 187.726C402.488 188.436 403.732 188.924 404.941 189.153L404.941 189.153L404.948 189.154C406.168 189.367 407.357 189.426 408.562 189.292L408.563 189.294C409.742 189.169 410.854 188.83 411.894 188.206C412.909 187.597 413.806 186.851 414.608 185.92L414.611 185.917L419.339 180.365L419.345 180.359L419.35 180.353C420.069 179.449 420.577 178.521 420.826 177.556L420.827 177.557C421.114 176.58 421.132 175.642 420.913 174.742C420.695 173.846 420.238 172.968 419.563 172.111L419.553 172.098L419.271 171.781C418.59 171.05 417.733 170.379 416.697 169.781L379.17 148.115ZM412.832 112.619C411.74 111.988 410.683 111.528 409.622 111.244L409.168 111.132C407.977 110.844 406.814 110.774 405.721 110.917C404.628 111.061 403.555 111.413 402.555 111.934L402.548 111.937C401.517 112.493 400.65 113.239 399.872 114.184L395.58 119.37C394.805 120.252 394.278 121.152 394.031 122.069L394.028 122.08C393.797 123.019 393.797 123.925 394.023 124.854C394.252 125.791 394.736 126.684 395.428 127.521L395.433 127.527L395.439 127.534C396.168 128.356 397.09 129.12 398.229 129.777L431.044 148.723C432.227 149.406 433.419 149.863 434.541 150.111L434.548 150.114C435.702 150.35 436.839 150.405 437.93 150.262C439.041 150.133 440.029 149.826 440.964 149.318C441.89 148.832 442.722 148.138 443.511 147.283L443.52 147.273L443.529 147.263L447.83 142.067L447.838 142.056C448.588 141.1 449.11 140.147 449.385 139.134L449.384 139.134C449.669 138.158 449.69 137.158 449.434 136.205C449.181 135.259 448.674 134.352 447.941 133.524L447.942 133.524C447.196 132.655 446.254 131.915 445.122 131.262L412.832 112.619Z" stroke="white"/>
<path d="M184.594 -58.0878L237.826 -27.3539C242.292 -24.7755 245.751 -22.0855 248.266 -19.2619C250.786 -16.4332 252.42 -13.533 253.163 -10.6141C253.915 -7.65852 253.807 -4.64503 252.845 -1.58701C251.879 1.48026 250.126 4.57893 247.545 7.69403L239.54 17.2187C237.543 19.5401 235.406 21.4574 233.107 22.9617C230.779 24.4555 228.335 25.5633 225.741 26.2394C223.115 26.9037 220.444 27.1659 217.692 26.977C214.916 26.7743 212.09 26.1104 209.179 24.9294L208.687 25.7898C211.191 27.7068 213.243 29.6743 214.859 31.7281L214.862 31.7322C216.475 33.7422 217.482 35.9199 217.879 38.193L217.88 38.197C218.296 40.4689 218.022 42.9717 217.036 45.7557C216.056 48.5223 214.137 51.5898 211.283 54.95L211.281 54.9529L204.199 63.4274C200.838 67.3973 197.338 70.3138 193.676 72.1828L193.674 72.1835C190.024 74.0721 186.29 75.0912 182.468 75.2482L182.462 75.2483C178.641 75.4424 174.723 74.8695 170.702 73.5825C166.683 72.2677 162.664 70.4526 158.599 68.1059L104.178 36.6855C100.205 34.3919 96.7778 31.9399 93.9192 29.2856L93.9171 29.2833L93.3924 28.7898C90.8173 26.3095 89.0118 23.6249 87.9587 20.7891C86.8311 17.7415 86.6628 14.5063 87.4374 11.0182L87.4384 11.0165L87.5886 10.3872C88.4116 7.23012 90.3057 3.84149 93.287 0.259439L93.2885 0.256901L93.6071 -0.130867L100.647 -8.5313L100.648 -8.53384C103.438 -11.8943 106.226 -14.4428 109.01 -16.1947L109.018 -16.2004C109.021 -16.2017 109.024 -16.2019 109.027 -16.2034C109.047 -16.2148 109.068 -16.2285 109.088 -16.2443L109.116 -16.261L109.117 -16.2618C111.905 -17.9658 114.655 -19.0873 117.401 -19.5898L117.402 -19.5893L117.408 -19.5902C120.166 -20.1332 122.992 -20.0874 125.86 -19.5528C128.77 -19.0012 131.713 -18.1173 134.704 -16.9249L135.201 -17.7807C132.916 -19.5983 131.197 -21.555 129.97 -23.6511C128.824 -25.6098 128.199 -27.6134 128.039 -29.6691L128.013 -30.0811C127.932 -31.9088 128.174 -33.7678 128.779 -35.6703L128.783 -35.6806L128.786 -35.6914L128.87 -35.9847C128.899 -36.0827 128.93 -36.1808 128.962 -36.2798L129.169 -36.8878C130.037 -39.1879 131.483 -41.4842 133.478 -43.8022L133.482 -43.8068L141.028 -52.8104L141.028 -52.8099L141.033 -52.8153L141.467 -53.3515C144.021 -56.4182 146.872 -58.8643 150.019 -60.6964C153.162 -62.5263 156.566 -63.6756 160.235 -64.1451C163.9 -64.6142 167.775 -64.3485 171.875 -63.3607L171.876 -63.3602C175.692 -62.4482 179.671 -60.8411 183.773 -58.554L184.594 -58.0878ZM144.498 3.44749C143.503 2.87267 142.482 2.45966 141.477 2.21524L141.048 2.12079L141.04 2.11942C139.88 1.90965 138.751 1.85282 137.68 1.97025C136.603 2.08841 135.572 2.4065 134.604 2.96519C134.295 3.13693 134.002 3.34761 133.736 3.53742L133.729 3.54223C133.135 3.98192 132.583 4.53443 132.078 5.12627L132.077 5.12796L127.372 10.6938L127.371 10.6947C126.849 11.3147 126.397 11.972 126.099 12.669L126.1 12.6681C125.95 12.9878 125.826 13.321 125.727 13.6674C125.421 14.7354 125.427 15.7514 125.691 16.7388C125.94 17.7417 126.428 18.6649 127.108 19.5548L127.112 19.5608C127.803 20.4384 128.785 21.2337 130.012 21.9421L166.588 43.0588C167.816 43.7682 169.06 44.2565 170.269 44.4851L170.269 44.486L170.276 44.4869C171.496 44.6999 172.685 44.7585 173.89 44.6251L173.891 44.6264C175.07 44.5018 176.182 44.1622 177.222 43.5387C178.237 42.9298 179.133 42.1833 179.936 41.2529L179.939 41.25L184.667 35.6981L184.673 35.6915L184.677 35.6852C185.397 34.7816 185.905 33.8537 186.154 32.8889L186.155 32.8894C186.442 31.9125 186.46 30.9746 186.241 30.0747C186.023 29.1784 185.566 28.3011 184.891 27.4438L184.881 27.4309L184.599 27.1139C183.918 26.3826 183.061 25.7115 182.025 25.1135L144.498 3.44749ZM178.16 -32.0488C177.068 -32.6791 176.011 -33.1395 174.95 -33.4236L174.496 -33.5349C173.305 -33.8236 172.142 -33.8937 171.049 -33.7501C169.956 -33.6067 168.883 -33.2546 167.883 -32.733L167.876 -32.7299C166.845 -32.1745 165.978 -31.4283 165.2 -30.4829L160.908 -25.2973C160.133 -24.4151 159.606 -23.5154 159.359 -22.5981L159.356 -22.5873C159.125 -21.6483 159.125 -20.7419 159.351 -19.8137C159.58 -18.8766 160.064 -17.983 160.756 -17.1468L160.761 -17.1403L160.767 -17.1334C161.496 -16.3114 162.418 -15.5479 163.557 -14.8904L196.372 4.05542C197.555 4.73885 198.746 5.19582 199.868 5.44399L199.876 5.4462C201.03 5.68232 202.167 5.73781 203.258 5.5945C204.369 5.46554 205.356 5.15857 206.292 4.65085C207.218 4.16427 208.05 3.47081 208.839 2.61572L208.848 2.60535L208.857 2.59582L213.157 -2.6006L213.166 -2.61147C213.916 -3.56696 214.438 -4.52025 214.713 -5.53311L214.712 -5.5336C214.997 -6.50923 215.018 -7.50916 214.762 -8.46239C214.509 -9.40866 214.002 -10.3149 213.269 -11.1434L213.27 -11.143C212.524 -12.0125 211.582 -12.7522 210.45 -13.4057L178.16 -32.0488Z" stroke="white"/>
<path d="M347.389 -41.501L400.622 -10.7671C405.088 -8.18873 408.547 -5.49866 411.062 -2.67514C413.581 0.153611 415.215 3.05379 415.958 5.97274C416.711 8.92827 416.603 11.9418 415.64 14.9998C414.675 18.0671 412.922 21.1657 410.341 24.2808L402.336 33.8055C400.338 36.1269 398.201 38.0442 395.902 39.5485C393.574 41.0423 391.13 42.1501 388.536 42.8262C385.911 43.4904 383.24 43.7527 380.488 43.5638C377.712 43.3611 374.886 42.6972 371.974 41.5162L371.482 42.3766C373.987 44.2936 376.038 46.2611 377.654 48.3149L377.658 48.319C379.271 50.329 380.278 52.5066 380.674 54.7798L380.675 54.7838C381.092 57.0557 380.818 59.5585 379.832 62.3425C378.851 65.1091 376.932 68.1766 374.079 71.5368L374.076 71.5397L366.995 80.0142C363.634 83.9841 360.133 86.9006 356.472 88.7696L356.469 88.7703C352.819 90.6589 349.086 91.678 345.264 91.835L345.258 91.8351C341.437 92.0292 337.519 91.4563 333.498 90.1693C329.478 88.8545 325.46 87.0394 321.395 84.6927L266.973 53.2723C263.001 50.9787 259.573 48.5267 256.715 45.8724L256.713 45.8701L256.188 45.3765C253.613 42.8963 251.807 40.2117 250.754 37.3759C249.627 34.3283 249.458 31.0931 250.233 27.605L250.234 27.6033L250.384 26.974C251.207 23.8169 253.101 20.4283 256.083 16.8462L256.084 16.8437L256.403 16.4559L263.443 8.05549L263.444 8.05295C266.234 4.69249 269.022 2.14397 271.806 0.392083L271.814 0.386425C271.816 0.385076 271.82 0.384861 271.822 0.383434C271.843 0.372031 271.863 0.358273 271.884 0.342526L271.912 0.325813L271.912 0.324967C274.701 -1.37903 277.451 -2.5005 280.197 -3.00298L280.198 -3.00249L280.204 -3.00344C282.962 -3.54641 285.787 -3.50057 288.655 -2.96605C291.565 -2.41444 294.509 -1.53047 297.5 -0.33814L297.996 -1.19389C295.712 -3.01154 293.992 -4.9682 292.766 -7.06431C291.62 -9.02304 290.995 -11.0266 290.835 -13.0824L290.809 -13.4943C290.728 -15.322 290.97 -17.181 291.575 -19.0835L291.579 -19.0938L291.582 -19.1046L291.665 -19.3979C291.695 -19.4959 291.726 -19.594 291.758 -19.693L291.964 -20.301C292.833 -22.6012 294.279 -24.8974 296.273 -27.2154L296.277 -27.22L303.823 -36.2236L303.824 -36.2231L303.828 -36.2285L304.263 -36.7647C306.816 -39.8314 309.667 -42.2775 312.815 -44.1096C315.958 -45.9395 319.362 -47.0888 323.031 -47.5584C326.696 -48.0274 330.57 -47.7617 334.671 -46.7739L334.671 -46.7734C338.488 -45.8614 342.466 -44.2544 346.568 -41.9673L347.389 -41.501ZM307.294 20.0343C306.298 19.4595 305.277 19.0464 304.273 18.802L303.844 18.7076L303.835 18.7062C302.675 18.4964 301.546 18.4396 300.476 18.557C299.398 18.6752 298.368 18.9933 297.4 19.552C297.091 19.7237 296.797 19.9344 296.532 20.1242L296.524 20.129C295.93 20.5687 295.379 21.1212 294.874 21.7131L294.873 21.7148L290.167 27.2806L290.167 27.2815C289.644 27.9015 289.193 28.5588 288.895 29.2558L288.895 29.2549C288.746 29.5746 288.622 29.9078 288.523 30.2542C288.217 31.3222 288.223 32.3382 288.487 33.3256C288.735 34.3285 289.224 35.2517 289.904 36.1416L289.908 36.1476C290.599 37.0252 291.581 37.8205 292.808 38.5289L329.383 59.6456C330.612 60.355 331.855 60.8433 333.065 61.0719L333.064 61.0728L333.072 61.0737C334.292 61.2867 335.481 61.3453 336.686 61.2119L336.686 61.2132C337.865 61.0886 338.977 60.749 340.017 60.1255C341.033 59.5165 341.929 58.7701 342.732 57.8397L342.735 57.8368L347.462 52.2849L347.468 52.2783L347.473 52.272C348.193 51.3683 348.701 50.4405 348.95 49.4757L348.951 49.4761C349.238 48.4993 349.255 47.5614 349.037 46.6615C348.819 45.7652 348.361 44.8879 347.687 44.0306L347.676 44.0177L347.395 43.7007C346.714 42.9694 345.856 42.2983 344.821 41.7003L307.294 20.0343ZM340.955 -15.462C339.863 -16.0923 338.807 -16.5527 337.746 -16.8368L337.291 -16.9481C336.1 -17.2368 334.938 -17.3069 333.844 -17.1633C332.752 -17.0199 331.679 -16.6678 330.678 -16.1462L330.672 -16.1431C329.641 -15.5877 328.774 -14.8416 327.996 -13.8961L323.704 -8.71054C322.928 -7.82827 322.401 -6.92862 322.154 -6.0113L322.152 -6.00053C321.921 -5.06148 321.92 -4.15514 322.147 -3.22694C322.376 -2.28979 322.859 -1.39617 323.551 -0.55997L323.557 -0.553526L323.563 -0.546594C324.292 0.27543 325.213 1.03894 326.352 1.69641L359.167 20.6422C360.351 21.3256 361.542 21.7826 362.664 22.0308L362.672 22.033C363.826 22.2691 364.962 22.3246 366.054 22.1813C367.164 22.0523 368.152 21.7454 369.087 21.2376C370.013 20.7511 370.846 20.0576 371.635 19.2025L371.644 19.1921L371.653 19.1826L375.953 13.9862L375.962 13.9753C376.712 13.0198 377.234 12.0665 377.509 11.0537L377.508 11.0532C377.793 10.0776 377.813 9.07763 377.558 8.1244C377.304 7.17814 376.798 6.27184 376.065 5.44335L376.066 5.44383C375.319 4.57428 374.378 3.83463 373.246 3.18107L340.955 -15.462Z" stroke="white"/>
</g>
</g>
<defs>
<clipPath id="paint0_diamond_81_435_clip_path"><path d="M299.166 -230.361L299.295 -230.844L299.495 -230.791L299.599 -230.611L299.166 -230.361ZM71.066 -291.48L71.1954 -291.963L71.1954 -291.963L71.066 -291.48ZM-73.5435 -207.99L-74.0272 -208.117L-74.0264 -208.119L-73.5435 -207.99ZM-73.5444 -207.986L-73.0607 -207.86L-73.0615 -207.857L-73.5444 -207.986ZM177.017 225.532L177.147 225.049L177.147 225.049L177.017 225.532ZM321.628 142.045L322.111 142.174L322.111 142.174L321.628 142.045ZM299.167 -230.359L299.038 -229.876L298.838 -229.929L298.734 -230.109L299.167 -230.359ZM299.166 -230.361L299.036 -229.878C286.427 -233.257 275.466 -241.667 268.939 -252.973L269.372 -253.223L269.805 -253.473C276.2 -242.396 286.942 -234.154 299.295 -230.844L299.166 -230.361ZM269.372 -253.223L268.939 -252.973C236.605 -308.976 164.332 -328.342 108.329 -296.008L108.079 -296.441L107.829 -296.874C164.311 -329.484 237.195 -309.955 269.805 -253.473L269.372 -253.223ZM108.079 -296.441L108.329 -296.008L108.324 -296.005L108.074 -296.438L107.824 -296.871L107.829 -296.874L108.079 -296.441ZM108.074 -296.438L108.324 -296.005C97.1259 -289.54 83.432 -287.647 70.9365 -290.997L71.066 -291.48L71.1954 -291.963C83.4299 -288.683 96.8513 -290.536 107.824 -296.871L108.074 -296.438ZM71.066 -291.48L70.9365 -290.997C8.47719 -307.733 -56.3259 -270.322 -73.0605 -207.861L-73.5435 -207.99L-74.0264 -208.119C-57.1489 -271.115 8.20258 -308.842 71.1954 -291.963L71.066 -291.48ZM-73.5435 -207.99L-73.0597 -207.864L-73.0607 -207.86L-73.5444 -207.986L-74.0282 -208.113L-74.0272 -208.117L-73.5435 -207.99ZM-73.5444 -207.986L-73.0615 -207.857C-76.4025 -195.388 -84.7175 -184.553 -95.8983 -178.097L-96.1483 -178.53L-96.3983 -178.964C-85.4471 -185.286 -77.2998 -195.903 -74.0274 -208.116L-73.5444 -207.986ZM-96.1483 -178.53L-95.8983 -178.097C-151.9 -145.765 -171.267 -73.4913 -138.934 -17.4876L-139.367 -17.2376L-139.8 -16.9876C-172.41 -73.4696 -152.878 -146.355 -96.3983 -178.964L-96.1483 -178.53ZM-139.367 -17.2376L-138.934 -17.4876C-132.465 -6.28302 -130.745 7.43521 -134.092 19.9284L-134.575 19.799L-135.058 19.6696C-131.778 7.42798 -133.466 -6.01679 -139.8 -16.9876L-139.367 -17.2376ZM-134.575 19.799L-134.092 19.9284C-150.829 82.3916 -113.416 147.193 -50.9565 163.929L-51.086 164.412L-51.2153 164.895C-114.208 148.016 -151.938 82.6662 -135.058 19.6696L-134.575 19.799ZM-51.086 164.412L-50.9565 163.929C-38.3471 167.308 -27.3865 175.718 -20.8589 187.024L-21.292 187.274L-21.725 187.524C-28.1199 176.447 -38.8621 168.205 -51.2153 164.895L-51.086 164.412ZM-21.292 187.274L-20.8589 187.024C11.4748 243.027 83.7521 262.39 139.751 230.059L140.001 230.492L140.251 230.925C83.7738 263.532 10.885 244.006 -21.725 187.524L-21.292 187.274ZM140.001 230.492L139.751 230.059C150.951 223.592 164.65 221.703 177.147 225.049L177.017 225.532L176.888 226.015C164.652 222.739 151.226 224.589 140.251 230.925L140.001 230.492ZM177.017 225.532L177.147 225.049C239.608 241.788 304.407 204.376 321.145 141.915L321.628 142.045L322.111 142.174C305.23 205.168 239.882 242.897 176.888 226.015L177.017 225.532ZM321.628 142.045L321.145 141.915C324.486 129.44 332.797 118.604 343.98 112.147L344.23 112.58L344.48 113.013C333.527 119.337 325.383 129.955 322.111 142.174L321.628 142.045ZM344.23 112.58L343.98 112.147C399.982 79.8147 419.349 7.54091 387.017 -48.4604L387.45 -48.7104L387.883 -48.9604C420.492 7.51925 400.96 80.4046 344.48 113.013L344.23 112.58ZM387.45 -48.7104L387.017 -48.4604C380.548 -59.6649 378.828 -73.3832 382.176 -85.8764L382.659 -85.747L383.142 -85.6176C379.861 -73.376 381.549 -59.9312 387.883 -48.9604L387.45 -48.7104ZM382.659 -85.747L382.176 -85.8764C398.912 -148.336 361.501 -213.139 299.038 -229.876L299.167 -230.359L299.296 -230.842C362.293 -213.962 400.02 -148.61 383.142 -85.6176L382.659 -85.747ZM299.167 -230.359L298.734 -230.109L298.733 -230.111L299.166 -230.361L299.599 -230.611L299.6 -230.609L299.167 -230.359Z"/></clipPath><clipPath id="paint1_diamond_81_435_clip_path"><path d="M299.478 -231.345L299.607 -231.828L299.808 -231.774L299.911 -231.595L299.478 -231.345ZM71.3785 -292.464L71.5079 -292.947L71.5079 -292.947L71.3785 -292.464ZM-73.2309 -208.974L-73.7145 -209.101L-73.7139 -209.103L-73.2309 -208.974ZM-73.2319 -208.97L-72.7484 -208.842L-72.749 -208.84L-73.2319 -208.97ZM-134.263 18.8156L-134.746 18.6862L-134.263 18.8156ZM-50.7734 163.429L-50.644 162.946L-50.7734 163.429ZM177.33 224.549L177.459 224.066L177.459 224.066L177.33 224.549ZM321.941 141.061L322.424 141.19L322.424 141.191L321.941 141.061ZM382.971 -86.7304L382.488 -86.8598L382.971 -86.7304ZM299.479 -231.342L299.35 -230.859L299.15 -230.913L299.046 -231.092L299.479 -231.342ZM299.478 -231.345L299.349 -230.862C286.739 -234.24 275.779 -242.65 269.251 -253.956L269.684 -254.206L270.117 -254.456C276.512 -243.38 287.254 -235.138 299.607 -231.828L299.478 -231.345ZM269.684 -254.206L269.251 -253.956C236.917 -309.96 164.645 -329.325 108.641 -296.991L108.391 -297.424L108.141 -297.857C164.623 -330.467 237.507 -310.938 270.117 -254.456L269.684 -254.206ZM108.391 -297.424L108.641 -296.991L108.636 -296.989L108.386 -297.422L108.136 -297.855L108.141 -297.857L108.391 -297.424ZM108.386 -297.422L108.636 -296.989C97.4384 -290.523 83.7445 -288.631 71.249 -291.981L71.3785 -292.464L71.5079 -292.947C83.7424 -289.666 97.1638 -291.52 108.136 -297.855L108.386 -297.422ZM71.3785 -292.464L71.249 -291.981C8.78968 -308.717 -56.0134 -271.306 -72.748 -208.844L-73.2309 -208.974L-73.7139 -209.103C-56.8364 -272.098 8.51508 -309.826 71.5079 -292.947L71.3785 -292.464ZM-73.2309 -208.974L-72.7474 -208.846L-72.7484 -208.842L-73.2319 -208.97L-73.7155 -209.097L-73.7145 -209.101L-73.2309 -208.974ZM-73.2319 -208.97L-72.749 -208.84C-76.09 -196.371 -84.405 -185.536 -95.5858 -179.081L-95.8358 -179.514L-96.0858 -179.947C-85.1346 -186.27 -76.9873 -196.886 -73.7149 -209.099L-73.2319 -208.97ZM-95.8358 -179.514L-95.5858 -179.081C-151.587 -146.749 -170.955 -74.4747 -138.621 -18.471L-139.054 -18.221L-139.487 -17.971C-172.097 -74.453 -152.565 -147.338 -96.0858 -179.947L-95.8358 -179.514ZM-139.054 -18.221L-138.621 -18.471C-132.152 -7.26645 -130.432 6.45183 -133.78 18.945L-134.263 18.8156L-134.746 18.6862C-131.466 6.4446 -133.153 -7.00023 -139.487 -17.971L-139.054 -18.221ZM-134.263 18.8156L-133.78 18.945C-150.517 81.4082 -113.103 146.21 -50.644 162.946L-50.7734 163.429L-50.9028 163.912C-113.896 147.033 -151.626 81.6828 -134.746 18.6862L-134.263 18.8156ZM-50.7734 163.429L-50.644 162.946C-38.0346 166.325 -27.074 174.734 -20.5464 186.04L-20.9794 186.29L-21.4124 186.54C-27.8074 175.464 -38.5496 167.222 -50.9028 163.912L-50.7734 163.429ZM-20.9794 186.29L-20.5464 186.04C11.7874 242.044 84.0646 261.407 140.063 229.076L140.313 229.509L140.563 229.942C84.0863 262.549 11.1975 243.022 -21.4124 186.54L-20.9794 186.29ZM140.313 229.509L140.063 229.076C151.264 222.609 164.963 220.72 177.459 224.066L177.33 224.549L177.201 225.032C164.965 221.755 151.538 223.605 140.563 229.942L140.313 229.509ZM177.33 224.549L177.459 224.066C239.92 240.804 304.719 203.392 321.458 140.932L321.941 141.061L322.424 141.191C305.542 204.185 240.195 241.913 177.201 225.032L177.33 224.549ZM321.941 141.061L321.458 140.932C324.798 128.457 333.109 117.62 344.293 111.164L344.543 111.597L344.793 112.03C333.839 118.354 325.696 128.972 322.424 141.19L321.941 141.061ZM344.543 111.597L344.293 111.164C400.294 78.8313 419.662 6.55751 387.329 -49.4438L387.762 -49.6938L388.195 -49.9438C420.804 6.53585 401.272 79.4212 344.793 112.03L344.543 111.597ZM387.762 -49.6938L387.329 -49.4438C380.861 -60.6483 379.141 -74.3666 382.488 -86.8598L382.971 -86.7304L383.454 -86.601C380.174 -74.3594 381.862 -60.9146 388.195 -49.9438L387.762 -49.6938ZM382.971 -86.7304L382.488 -86.8598C399.224 -149.319 361.813 -214.122 299.35 -230.859L299.479 -231.342L299.609 -231.825C362.605 -214.945 400.333 -149.594 383.454 -86.601L382.971 -86.7304ZM299.479 -231.342L299.046 -231.092L299.045 -231.095L299.478 -231.345L299.911 -231.595L299.912 -231.592L299.479 -231.342Z"/></clipPath><filter id="filter0_f_81_435" x="-794.325" y="-151.324" width="1508.06" height="723.649" filterUnits="userSpaceOnUse" color-interpolation-filters="sRGB">
<feFlood flood-opacity="0" result="BackgroundImageFix"/>
<feBlend mode="normal" in="SourceGraphic" in2="BackgroundImageFix" result="shape"/>
<feGaussianBlur stdDeviation="83.6622" result="effect1_foregroundBlur_81_435"/>
</filter>
<filter id="filter1_f_81_435" x="-564.73" y="41.2742" width="1649.18" height="400.474" filterUnits="userSpaceOnUse" color-interpolation-filters="sRGB">
<feFlood flood-opacity="0" result="BackgroundImageFix"/>
<feBlend mode="normal" in="SourceGraphic" in2="BackgroundImageFix" result="shape"/>
<feGaussianBlur stdDeviation="24.2903" result="effect1_foregroundBlur_81_435"/>
</filter>
<linearGradient id="paint0_diamond_81_435" x1="0" y1="0" x2="500" y2="500" gradientUnits="userSpaceOnUse">
<stop stop-color="white"/>
<stop offset="1" stop-color="white"/>
</linearGradient>
<linearGradient id="paint1_diamond_81_435" x1="0" y1="0" x2="500" y2="500" gradientUnits="userSpaceOnUse">
<stop stop-color="white"/>
<stop offset="1" stop-color="white"/>
</linearGradient>
<linearGradient id="paint2_linear_81_435" x1="565.773" y1="-25.9934" x2="-161.832" y2="673.326" gradientUnits="userSpaceOnUse">
<stop stop-color="#E20000"/>
<stop offset="1" stop-color="#730B0B" stop-opacity="0"/>
</linearGradient>
<linearGradient id="paint3_linear_81_435" x1="761.283" y1="57.1113" x2="214.722" y2="778.646" gradientUnits="userSpaceOnUse">
<stop stop-color="#FF7474"/>
<stop offset="1" stop-color="#7E0000" stop-opacity="0"/>
</linearGradient>
</defs>
</svg>
