<svg width="12" height="12" viewBox="0 0 12 12" fill="none" xmlns="http://www.w3.org/2000/svg">
<path d="M11.3011 3.76664V3.80534C11.3011 4.26123 11.3011 4.48971 11.1914 4.67631C11.0817 4.86291 10.8818 4.97371 10.4832 5.19583L10.0628 5.42908C10.3522 4.44942 10.4492 3.39662 10.4848 2.49648L10.4901 2.37933L10.4911 2.35176C10.8362 2.47157 11.0302 2.56116 11.1511 2.72867C11.3011 2.93701 11.3011 3.21373 11.3011 3.76664ZM0.698843 3.76664V3.80534C0.698843 4.26123 0.698843 4.48971 0.808576 4.67631C0.91831 4.86291 1.11816 4.97371 1.51681 5.19583L1.93772 5.42908C1.64775 4.44942 1.55074 3.39662 1.51522 2.49648L1.50992 2.37933L1.50939 2.35176C1.16375 2.47157 0.969731 2.56116 0.848865 2.72867C0.698843 2.93701 0.698843 3.21426 0.698843 3.76664Z" fill="black"/>
<path fill-rule="evenodd" clip-rule="evenodd" d="M8.32153 0.68407C7.55454 0.558431 6.77842 0.496901 6.00122 0.50012C5.05602 0.50012 4.27675 0.583348 3.68091 0.68407C3.0771 0.785852 2.77547 0.836743 2.52313 1.14739C2.27133 1.45804 2.28458 1.7936 2.31109 2.46473C2.4028 4.76966 2.90005 7.64925 5.60363 7.9037V9.77713H4.84557C4.72306 9.7772 4.60436 9.8197 4.50965 9.8974C4.41494 9.97511 4.35007 10.0832 4.32605 10.2033L4.22533 10.7048H2.82053C2.71508 10.7048 2.61396 10.7467 2.53939 10.8213C2.46483 10.8958 2.42294 10.997 2.42294 11.1024C2.42294 11.2079 2.46483 11.309 2.53939 11.3836C2.61396 11.4581 2.71508 11.5 2.82053 11.5H9.18191C9.28735 11.5 9.38848 11.4581 9.46304 11.3836C9.5376 11.309 9.57949 11.2079 9.57949 11.1024C9.57949 10.997 9.5376 10.8958 9.46304 10.8213C9.38848 10.7467 9.28735 10.7048 9.18191 10.7048H7.7771L7.67638 10.2033C7.65237 10.0832 7.58749 9.97511 7.49278 9.8974C7.39807 9.8197 7.27937 9.7772 7.15687 9.77713H6.3988V7.9037C9.10239 7.64925 9.60017 4.77019 9.69135 2.46473C9.71785 1.7936 9.73164 1.45751 9.4793 1.14739C9.22697 0.836743 8.92533 0.785852 8.32153 0.68407ZM6.41842 2.51827C6.49108 2.54836 6.55318 2.59933 6.59687 2.66472C6.64056 2.73011 6.66387 2.80699 6.66386 2.88564V5.00609C6.66386 5.11154 6.62197 5.21267 6.54741 5.28723C6.47285 5.36179 6.37172 5.40368 6.26627 5.40368C6.16083 5.40368 6.0597 5.36179 5.98514 5.28723C5.91058 5.21267 5.86869 5.11154 5.86869 5.00609V3.84514L5.75206 3.96177C5.71566 4.00083 5.67177 4.03216 5.623 4.05389C5.57423 4.07562 5.52158 4.08731 5.4682 4.08825C5.41481 4.08919 5.36179 4.07937 5.31228 4.05938C5.26278 4.03938 5.2178 4.00962 5.18005 3.97186C5.1423 3.93411 5.11253 3.88914 5.09254 3.83963C5.07254 3.79012 5.06272 3.7371 5.06366 3.68371C5.0646 3.63033 5.07629 3.57768 5.09802 3.52891C5.11975 3.48014 5.15108 3.43625 5.19014 3.39985L5.98531 2.60468C6.04088 2.54907 6.11168 2.51118 6.18876 2.49581C6.26585 2.48043 6.34577 2.48824 6.41842 2.51827Z" fill="black"/>
</svg>
