<svg width="20" height="20" viewBox="0 0 20 20" fill="none" xmlns="http://www.w3.org/2000/svg">
<path d="M18.3334 6.8018V6.86264C18.3334 7.5793 18.3334 7.93847 18.1609 8.2318C17.9884 8.52514 17.6742 8.6993 17.0475 9.04847L16.3867 9.41514C16.8417 7.87514 16.9942 6.22014 17.05 4.80514L17.0584 4.62097L17.06 4.57764C17.6025 4.76597 17.9075 4.9068 18.0975 5.17014C18.3334 5.49764 18.3334 5.93264 18.3334 6.8018ZM1.66669 6.8018V6.86264C1.66669 7.5793 1.66669 7.93847 1.83919 8.2318C2.01169 8.52514 2.32585 8.6993 2.95252 9.04847L3.61419 9.41514C3.15835 7.87514 3.00585 6.22014 2.95002 4.80514L2.94169 4.62097L2.94085 4.57764C2.39752 4.76597 2.09252 4.9068 1.90252 5.17014C1.66669 5.49764 1.66669 5.93347 1.66669 6.8018Z" fill="#8C8C8C"/>
<path fill-rule="evenodd" clip-rule="evenodd" d="M13.6494 1.95603C12.4437 1.75852 11.2237 1.6618 10.0019 1.66686C8.5161 1.66686 7.2911 1.79769 6.35444 1.95603C5.40527 2.11603 4.9311 2.19603 4.53444 2.68436C4.1386 3.17269 4.15944 3.70019 4.2011 4.75519C4.34527 8.37853 5.12694 12.9052 9.37694 13.3052V16.2502H8.18527C7.99269 16.2503 7.8061 16.3171 7.65722 16.4393C7.50833 16.5614 7.40635 16.7314 7.3686 16.9202L7.21027 17.7085H5.00194C4.83618 17.7085 4.67721 17.7744 4.56 17.8916C4.44279 18.0088 4.37694 18.1678 4.37694 18.3335C4.37694 18.4993 4.44279 18.6583 4.56 18.7755C4.67721 18.8927 4.83618 18.9585 5.00194 18.9585H15.0019C15.1677 18.9585 15.3267 18.8927 15.4439 18.7755C15.5611 18.6583 15.6269 18.4993 15.6269 18.3335C15.6269 18.1678 15.5611 18.0088 15.4439 17.8916C15.3267 17.7744 15.1677 17.7085 15.0019 17.7085H12.7936L12.6353 16.9202C12.5975 16.7314 12.4955 16.5614 12.3467 16.4393C12.1978 16.3171 12.0112 16.2503 11.8186 16.2502H10.6269V13.3052C14.8769 12.9052 15.6594 8.37936 15.8028 4.75519C15.8444 3.70019 15.8661 3.17186 15.4694 2.68436C15.0728 2.19603 14.5986 2.11603 13.6494 1.95603ZM10.6578 4.83936C10.772 4.88667 10.8696 4.96679 10.9383 5.06958C11.007 5.17238 11.0436 5.29323 11.0436 5.41686V8.75019C11.0436 8.91595 10.9778 9.07492 10.8605 9.19213C10.7433 9.30934 10.5844 9.37519 10.4186 9.37519C10.2528 9.37519 10.0939 9.30934 9.97666 9.19213C9.85945 9.07492 9.7936 8.91595 9.7936 8.75019V6.92519L9.61027 7.10853C9.55305 7.16993 9.48405 7.21918 9.40739 7.25334C9.33072 7.2875 9.24796 7.30587 9.16404 7.30735C9.08012 7.30883 8.99676 7.2934 8.91894 7.26196C8.84112 7.23053 8.77042 7.18374 8.71107 7.12439C8.65172 7.06504 8.60494 6.99435 8.5735 6.91653C8.54207 6.8387 8.52663 6.75534 8.52811 6.67143C8.52959 6.58751 8.54796 6.50474 8.58212 6.42808C8.61628 6.35141 8.66553 6.28241 8.72694 6.22519L9.97694 4.97519C10.0643 4.88778 10.1756 4.82823 10.2968 4.80405C10.4179 4.77987 10.5436 4.79216 10.6578 4.83936Z" fill="#8C8C8C"/>
</svg>
